<svg width="3699" height="351" viewBox="0 0 3699 351" fill="none" xmlns="http://www.w3.org/2000/svg">
<mask id="mask0" style="mask-type:alpha" maskUnits="userSpaceOnUse" x="0" y="0" width="2000" height="351">
<rect width="2000" height="351" fill="#141622"/>
</mask>
<g mask="url(#mask0)">
<path d="M2054.68 149.2L2028.58 149.2C2002.47 149.2 1950.41 149.2 1897.89 174.092C1845.91 198.68 1793.62 248.921 1741.86 279.75C1689.35 310.58 1636.83 323.521 1585.08 335.7C1532.79 347.88 1480.8 360.821 1428.29 335.7C1376.23 310.58 1324.01 248.921 1271.5 230.042C1219.67 211.621 1167.23 235.98 1115.47 236.208C1063.03 235.98 1011.2 211.621 958.682 223.8C906.469 235.98 854.409 286.221 801.893 285.992C749.909 286.221 697.62 235.98 645.865 198.908C593.348 161.38 540.832 137.021 489.076 149.2C436.788 161.38 384.804 211.621 332.287 230.042C280.227 248.921 228.015 235.98 175.498 223.8C123.667 211.621 71.226 198.68 19.4705 167.85C-32.9701 137.021 -84.8018 86.7798 -137.318 99.4922C-189.531 111.9 -241.591 186.5 -294.107 205.15C-346.091 223.8 -398.38 186.5 -450.135 192.742C-502.652 198.68 -555.168 248.921 -606.924 248.692C-659.212 248.921 -711.196 198.68 -763.713 180.258C-815.773 161.38 -867.985 174.321 -920.502 167.85C-972.333 161.38 -1024.77 137.021 -1076.53 155.442C-1128.97 174.32 -1180.8 235.98 -1233.32 242.45C-1285.53 248.92 -1337.59 198.68 -1390.11 167.85C-1442.09 137.02 -1494.38 124.08 -1546.14 136.792C-1598.65 149.2 -1651.17 186.5 -1677.05 205.15L-1703 223.8L-1703 4.90315e-05L-1676.97 5.13072e-05C-1650.86 5.35894e-05 -1598.65 5.8154e-05 -1546.14 6.27451e-05C-1494.3 6.72764e-05 -1441.86 7.18609e-05 -1390.11 7.63855e-05C-1337.67 8.097e-05 -1285.84 8.55013e-05 -1233.32 9.00924e-05C-1181.11 9.4657e-05 -1129.05 9.92082e-05 -1076.53 0.000103799C-1024.55 0.000108344 -972.257 0.000112915 -920.502 0.00011744C-867.985 0.000122031 -815.468 0.000126622 -763.713 0.000131147C-711.425 0.000135718 -659.441 0.000140262 -606.924 0.000144854C-554.864 0.000149405 -502.652 0.000153969 -450.135 0.00015856C-398.303 0.000163092 -345.863 0.000167676 -294.107 0.000172201C-241.667 0.000176785 -189.835 0.000181317 -137.318 0.000185908C-85.1062 0.000190472 -33.0462 0.000195024 19.4705 0.000199615C71.4544 0.000204159 123.743 0.00020873 175.498 0.000213255C228.015 0.000217846 280.532 0.000222437 332.287 0.000226962C384.575 0.000231533 436.559 0.000236078 489.076 0.000240669C541.136 0.00024522 593.348 0.000249785 645.865 0.000254376C697.697 0.000258907 750.137 0.000263492 801.893 0.000268016C854.333 0.000272601 906.165 0.000277132 958.682 0.000281723C1010.89 0.000286288 1062.95 0.000290839 1115.47 0.00029543C1167.45 0.000299975 1219.74 0.000304546 1271.5 0.00030907C1324.01 0.000313662 1376.53 0.000318253 1428.29 0.000322777C1480.58 0.000327349 1532.56 0.000331893 1585.08 0.000336484C1637.14 0.000341036 1689.35 0.0003456 1741.86 0.000350191C1793.7 0.000354722 1846.14 0.000359307 1897.89 0.000363832C1950.33 0.000368416 2002.17 0.000372947 2028.8 0.000375276L2054.68 0.000377539L2054.68 149.2Z" fill="#369687"/>
<path opacity="0.9" d="M2054.68 223.8L2028.58 230.042C2002.47 235.98 1950.41 248.921 1897.89 236.208C1845.91 223.8 1793.62 186.5 1741.86 192.742C1689.35 198.68 1636.83 248.921 1585.08 236.208C1532.79 223.8 1480.8 149.2 1428.29 111.9C1376.23 74.6003 1324.01 74.6003 1271.5 87.0082C1219.67 99.7207 1167.23 124.08 1115.47 161.608C1063.03 198.68 1011.2 248.921 958.682 261.1C906.469 273.28 854.409 248.921 801.893 205.15C749.909 161.38 697.62 99.7206 645.865 93.2502C593.348 86.7798 540.832 137.021 489.076 186.5C436.788 235.98 384.804 286.221 332.287 298.4C280.227 310.58 228.015 286.221 175.498 254.858C123.667 223.8 71.226 186.5 19.4705 205.15C-32.9701 223.8 -84.8018 298.4 -137.318 317.05C-189.531 335.7 -241.591 298.4 -294.107 292.158C-346.091 286.22 -398.38 310.58 -450.135 323.292C-502.652 335.7 -555.168 335.7 -606.924 298.4C-659.212 261.1 -711.196 186.5 -763.713 142.958C-815.773 99.7205 -867.985 86.7797 -920.502 118.142C-972.333 149.2 -1024.77 223.8 -1076.53 273.508C-1128.97 323.52 -1180.8 347.88 -1233.32 317.05C-1285.53 286.22 -1337.59 198.68 -1390.11 192.742C-1442.09 186.5 -1494.38 261.1 -1546.14 285.992C-1598.65 310.58 -1651.17 286.22 -1677.05 273.508L-1703 261.1L-1703 3.63418e-05L-1676.97 3.86175e-05C-1650.86 4.08997e-05 -1598.65 4.54643e-05 -1546.14 5.00554e-05C-1494.3 5.45867e-05 -1441.86 5.91712e-05 -1390.11 6.36958e-05C-1337.67 6.82803e-05 -1285.84 7.28116e-05 -1233.32 7.74027e-05C-1181.11 8.19673e-05 -1129.05 8.65185e-05 -1076.53 9.11096e-05C-1024.55 9.56542e-05 -972.257 0.000100225 -920.502 0.00010475C-867.985 0.000109341 -815.468 0.000113932 -763.713 0.000118457C-711.425 0.000123028 -659.441 0.000127573 -606.924 0.000132164C-554.864 0.000136715 -502.652 0.00014128 -450.135 0.000145871C-398.303 0.000150402 -345.863 0.000154987 -294.107 0.000159511C-241.667 0.000164096 -189.835 0.000168627 -137.318 0.000173218C-85.1062 0.000177783 -33.0462 0.000182334 19.4705 0.000186925C71.4544 0.00019147 123.743 0.000196041 175.498 0.000200565C228.015 0.000205157 280.532 0.000209748 332.287 0.000214272C384.575 0.000218844 436.559 0.000223388 489.076 0.000227979C541.136 0.00023253 593.348 0.000237095 645.865 0.000241686C697.697 0.000246217 750.137 0.000250802 801.893 0.000255327C854.333 0.000259911 906.165 0.000264442 958.682 0.000269033C1010.89 0.000273598 1062.95 0.000278149 1115.47 0.00028274C1167.45 0.000287285 1219.74 0.000291856 1271.5 0.000296381C1324.01 0.000300972 1376.53 0.000305563 1428.29 0.000310088C1480.58 0.000314659 1532.56 0.000319203 1585.08 0.000323795C1637.14 0.000328346 1689.35 0.00033291 1741.86 0.000337502C1793.7 0.000342033 1846.14 0.000346617 1897.89 0.000351142C1950.33 0.000355726 2002.17 0.000360258 2028.8 0.000362587L2054.68 0.000364849L2054.68 223.8Z" fill="#514983"/>
<path opacity="0.8" d="M2054.68 261.1L2028.58 279.75C2002.47 298.4 1950.41 335.7 1897.89 329.458C1845.91 323.521 1793.62 273.28 1741.86 223.8C1689.35 174.321 1636.83 124.08 1585.08 142.958C1532.79 161.38 1480.8 248.921 1428.29 261.1C1376.23 273.28 1324.01 211.621 1271.5 167.85C1219.67 124.08 1167.23 99.7206 1115.47 136.792C1063.03 174.321 1011.2 273.28 958.682 317.05C906.469 360.82 854.409 347.88 801.893 348.108C749.909 347.88 697.62 360.82 645.865 335.7C593.348 310.58 540.832 248.92 489.076 236.208C436.788 223.8 384.804 261.1 332.287 273.508C280.227 286.22 228.015 273.28 175.498 230.042C123.667 186.5 71.226 111.9 19.4705 74.6001C-32.9701 37.3001 -84.8017 37.3001 -137.318 74.6001C-189.531 111.9 -241.591 186.5 -294.107 211.392C-346.091 235.98 -398.38 211.62 -450.135 223.8C-502.652 235.98 -555.168 286.22 -606.924 273.508C-659.212 261.1 -711.196 186.5 -763.713 149.2C-815.773 111.9 -867.985 111.9 -920.502 118.142C-972.333 124.08 -1024.77 137.02 -1076.53 136.792C-1128.97 137.02 -1180.8 124.08 -1233.32 149.2C-1285.53 174.32 -1337.59 235.98 -1390.11 236.208C-1442.09 235.98 -1494.38 174.32 -1546.14 174.092C-1598.65 174.32 -1651.17 235.979 -1677.05 267.342L-1703 298.4L-1703 -2.58618e-05L-1676.97 -2.35862e-05C-1650.86 -2.13039e-05 -1598.65 -1.67394e-05 -1546.14 -1.21482e-05C-1494.3 -7.61696e-06 -1441.86 -3.03246e-06 -1390.11 1.49215e-06C-1337.67 6.07665e-06 -1285.84 1.06079e-05 -1233.32 1.51991e-05C-1181.11 1.97636e-05 -1129.05 2.43148e-05 -1076.53 2.8906e-05C-1024.55 3.34506e-05 -972.257 3.80218e-05 -920.502 4.25464e-05C-867.985 4.71375e-05 -815.468 5.17287e-05 -763.713 5.62533e-05C-711.425 6.08245e-05 -659.441 6.53691e-05 -606.924 6.99602e-05C-554.864 7.45114e-05 -502.652 7.9076e-05 -450.135 8.36671e-05C-398.303 8.81984e-05 -345.863 9.27829e-05 -294.107 9.73075e-05C-241.667 0.000101892 -189.835 0.000106423 -137.318 0.000111014C-85.1062 0.000115579 -33.0462 0.00012013 19.4705 0.000124721C71.4544 0.000129266 123.743 0.000133837 175.498 0.000138362C228.015 0.000142953 280.532 0.000147544 332.287 0.000152069C384.575 0.00015664 436.559 0.000161184 489.076 0.000165776C541.136 0.000170327 593.348 0.000174891 645.865 0.000179483C697.697 0.000184014 750.137 0.000188598 801.893 0.000193123C854.333 0.000197707 906.165 0.000202239 958.682 0.00020683C1010.89 0.000211394 1062.95 0.000215946 1115.47 0.000220537C1167.45 0.000225081 1219.74 0.000229652 1271.5 0.000234177C1324.01 0.000238768 1376.53 0.000243359 1428.29 0.000247884C1480.58 0.000252455 1532.56 0.000257 1585.08 0.000261591C1637.14 0.000266142 1689.35 0.000270707 1741.86 0.000275298C1793.7 0.000279829 1846.14 0.000284414 1897.89 0.000288938C1950.33 0.000293523 2002.17 0.000298054 2028.8 0.000300383L2054.68 0.000302645L2054.68 261.1Z" fill="#1B182B"/>
</g>
<mask id="mask1" style="mask-type:alpha" maskUnits="userSpaceOnUse" x="1741" y="0" width="1958" height="351">
<rect width="1958" height="351" transform="matrix(-1 0 0 1 3699 0)" fill="#141622"/>
</mask>
<g mask="url(#mask1)">
<path d="M1794.32 149.2L1820.42 149.2C1846.53 149.2 1898.59 149.2 1951.11 174.092C2003.09 198.68 2055.38 248.921 2107.14 279.75C2159.65 310.58 2212.17 323.521 2263.92 335.7C2316.21 347.88 2368.2 360.821 2420.71 335.7C2472.77 310.58 2524.99 248.921 2577.5 230.042C2629.33 211.621 2681.77 235.98 2733.53 236.208C2785.97 235.98 2837.8 211.621 2890.32 223.8C2942.53 235.98 2994.59 286.221 3047.11 285.992C3099.09 286.221 3151.38 235.98 3203.14 198.908C3255.65 161.38 3308.17 137.021 3359.92 149.2C3412.21 161.38 3464.2 211.621 3516.71 230.042C3568.77 248.921 3620.99 235.98 3673.5 223.8C3725.33 211.621 3777.77 198.68 3829.53 167.85C3881.97 137.021 3933.8 86.7798 3986.32 99.4922C4038.53 111.9 4090.59 186.5 4143.11 205.15C4195.09 223.8 4247.38 186.5 4299.14 192.742C4351.65 198.68 4404.17 248.921 4455.92 248.692C4508.21 248.921 4560.2 198.68 4612.71 180.258C4664.77 161.38 4716.99 174.321 4769.5 167.85C4821.33 161.38 4873.77 137.021 4925.53 155.442C4977.97 174.32 5029.8 235.98 5082.32 242.45C5134.53 248.92 5186.59 198.68 5239.11 167.85C5291.09 137.02 5343.38 124.08 5395.14 136.792C5447.65 149.2 5500.17 186.5 5526.05 205.15L5552 223.8L5552 4.90315e-05L5525.97 5.13072e-05C5499.86 5.35894e-05 5447.65 5.8154e-05 5395.14 6.27451e-05C5343.3 6.72764e-05 5290.86 7.18609e-05 5239.11 7.63855e-05C5186.67 8.097e-05 5134.84 8.55013e-05 5082.32 9.00924e-05C5030.11 9.4657e-05 4978.05 9.92082e-05 4925.53 0.000103799C4873.55 0.000108344 4821.26 0.000112915 4769.5 0.00011744C4716.99 0.000122031 4664.47 0.000126622 4612.71 0.000131147C4560.42 0.000135718 4508.44 0.000140262 4455.92 0.000144854C4403.86 0.000149405 4351.65 0.000153969 4299.14 0.00015856C4247.3 0.000163092 4194.86 0.000167676 4143.11 0.000172201C4090.67 0.000176785 4038.84 0.000181317 3986.32 0.000185908C3934.11 0.000190472 3882.05 0.000195024 3829.53 0.000199615C3777.55 0.000204159 3725.26 0.00020873 3673.5 0.000213255C3620.99 0.000217846 3568.47 0.000222437 3516.71 0.000226962C3464.42 0.000231533 3412.44 0.000236078 3359.92 0.000240669C3307.86 0.00024522 3255.65 0.000249785 3203.14 0.000254376C3151.3 0.000258907 3098.86 0.000263492 3047.11 0.000268016C2994.67 0.000272601 2942.84 0.000277132 2890.32 0.000281723C2838.11 0.000286288 2786.05 0.000290839 2733.53 0.00029543C2681.55 0.000299975 2629.26 0.000304546 2577.5 0.00030907C2524.99 0.000313662 2472.47 0.000318253 2420.71 0.000322777C2368.42 0.000327349 2316.44 0.000331893 2263.92 0.000336484C2211.86 0.000341036 2159.65 0.0003456 2107.14 0.000350191C2055.3 0.000354722 2002.86 0.000359307 1951.11 0.000363832C1898.67 0.000368416 1846.83 0.000372947 1820.2 0.000375276L1794.32 0.000377539L1794.32 149.2Z" fill="#369687"/>
<path opacity="0.9" d="M1794.32 223.8L1820.42 230.042C1846.53 235.98 1898.59 248.921 1951.11 236.208C2003.09 223.8 2055.38 186.5 2107.14 192.742C2159.65 198.68 2212.17 248.921 2263.92 236.208C2316.21 223.8 2368.2 149.2 2420.71 111.9C2472.77 74.6003 2524.99 74.6003 2577.5 87.0082C2629.33 99.7207 2681.77 124.08 2733.53 161.608C2785.97 198.68 2837.8 248.921 2890.32 261.1C2942.53 273.28 2994.59 248.921 3047.11 205.15C3099.09 161.38 3151.38 99.7206 3203.14 93.2502C3255.65 86.7798 3308.17 137.021 3359.92 186.5C3412.21 235.98 3464.2 286.221 3516.71 298.4C3568.77 310.58 3620.99 286.221 3673.5 254.858C3725.33 223.8 3777.77 186.5 3829.53 205.15C3881.97 223.8 3933.8 298.4 3986.32 317.05C4038.53 335.7 4090.59 298.4 4143.11 292.158C4195.09 286.22 4247.38 310.58 4299.14 323.292C4351.65 335.7 4404.17 335.7 4455.92 298.4C4508.21 261.1 4560.2 186.5 4612.71 142.958C4664.77 99.7205 4716.99 86.7797 4769.5 118.142C4821.33 149.2 4873.77 223.8 4925.53 273.508C4977.97 323.52 5029.8 347.88 5082.32 317.05C5134.53 286.22 5186.59 198.68 5239.11 192.742C5291.09 186.5 5343.38 261.1 5395.14 285.992C5447.65 310.58 5500.17 286.22 5526.05 273.508L5552 261.1L5552 3.63418e-05L5525.97 3.86175e-05C5499.86 4.08997e-05 5447.65 4.54643e-05 5395.14 5.00554e-05C5343.3 5.45867e-05 5290.86 5.91712e-05 5239.11 6.36958e-05C5186.67 6.82803e-05 5134.84 7.28116e-05 5082.32 7.74027e-05C5030.11 8.19673e-05 4978.05 8.65185e-05 4925.53 9.11096e-05C4873.55 9.56542e-05 4821.26 0.000100225 4769.5 0.00010475C4716.99 0.000109341 4664.47 0.000113932 4612.71 0.000118457C4560.42 0.000123028 4508.44 0.000127573 4455.92 0.000132164C4403.86 0.000136715 4351.65 0.00014128 4299.14 0.000145871C4247.3 0.000150402 4194.86 0.000154987 4143.11 0.000159511C4090.67 0.000164096 4038.84 0.000168627 3986.32 0.000173218C3934.11 0.000177783 3882.05 0.000182334 3829.53 0.000186925C3777.55 0.00019147 3725.26 0.000196041 3673.5 0.000200565C3620.99 0.000205157 3568.47 0.000209748 3516.71 0.000214272C3464.42 0.000218844 3412.44 0.000223388 3359.92 0.000227979C3307.86 0.00023253 3255.65 0.000237095 3203.14 0.000241686C3151.3 0.000246217 3098.86 0.000250802 3047.11 0.000255327C2994.67 0.000259911 2942.84 0.000264442 2890.32 0.000269033C2838.11 0.000273598 2786.05 0.000278149 2733.53 0.00028274C2681.55 0.000287285 2629.26 0.000291856 2577.5 0.000296381C2524.99 0.000300972 2472.47 0.000305563 2420.71 0.000310088C2368.42 0.000314659 2316.44 0.000319203 2263.92 0.000323795C2211.86 0.000328346 2159.65 0.00033291 2107.14 0.000337502C2055.3 0.000342033 2002.86 0.000346617 1951.11 0.000351142C1898.67 0.000355726 1846.83 0.000360258 1820.2 0.000362587L1794.32 0.000364849L1794.32 223.8Z" fill="#514983"/>
<path opacity="0.8" d="M1794.32 261.1L1820.42 279.75C1846.53 298.4 1898.59 335.7 1951.11 329.458C2003.09 323.521 2055.38 273.28 2107.14 223.8C2159.65 174.321 2212.17 124.08 2263.92 142.958C2316.21 161.38 2368.2 248.921 2420.71 261.1C2472.77 273.28 2524.99 211.621 2577.5 167.85C2629.33 124.08 2681.77 99.7206 2733.53 136.792C2785.97 174.321 2837.8 273.28 2890.32 317.05C2942.53 360.82 2994.59 347.88 3047.11 348.108C3099.09 347.88 3151.38 360.82 3203.14 335.7C3255.65 310.58 3308.17 248.92 3359.92 236.208C3412.21 223.8 3464.2 261.1 3516.71 273.508C3568.77 286.22 3620.99 273.28 3673.5 230.042C3725.33 186.5 3777.77 111.9 3829.53 74.6001C3881.97 37.3001 3933.8 37.3001 3986.32 74.6001C4038.53 111.9 4090.59 186.5 4143.11 211.392C4195.09 235.98 4247.38 211.62 4299.14 223.8C4351.65 235.98 4404.17 286.22 4455.92 273.508C4508.21 261.1 4560.2 186.5 4612.71 149.2C4664.77 111.9 4716.99 111.9 4769.5 118.142C4821.33 124.08 4873.77 137.02 4925.53 136.792C4977.97 137.02 5029.8 124.08 5082.32 149.2C5134.53 174.32 5186.59 235.98 5239.11 236.208C5291.09 235.98 5343.38 174.32 5395.14 174.092C5447.65 174.32 5500.17 235.979 5526.05 267.342L5552 298.4L5552 -2.58618e-05L5525.97 -2.35862e-05C5499.86 -2.13039e-05 5447.65 -1.67394e-05 5395.14 -1.21482e-05C5343.3 -7.61696e-06 5290.86 -3.03246e-06 5239.11 1.49215e-06C5186.67 6.07665e-06 5134.84 1.06079e-05 5082.32 1.51991e-05C5030.11 1.97636e-05 4978.05 2.43148e-05 4925.53 2.8906e-05C4873.55 3.34506e-05 4821.26 3.80218e-05 4769.5 4.25464e-05C4716.99 4.71375e-05 4664.47 5.17287e-05 4612.71 5.62533e-05C4560.42 6.08245e-05 4508.44 6.53691e-05 4455.92 6.99602e-05C4403.86 7.45114e-05 4351.65 7.9076e-05 4299.14 8.36671e-05C4247.3 8.81984e-05 4194.86 9.27829e-05 4143.11 9.73075e-05C4090.67 0.000101892 4038.84 0.000106423 3986.32 0.000111014C3934.11 0.000115579 3882.05 0.00012013 3829.53 0.000124721C3777.55 0.000129266 3725.26 0.000133837 3673.5 0.000138362C3620.99 0.000142953 3568.47 0.000147544 3516.71 0.000152069C3464.42 0.00015664 3412.44 0.000161184 3359.92 0.000165776C3307.86 0.000170327 3255.65 0.000174891 3203.14 0.000179483C3151.3 0.000184014 3098.86 0.000188598 3047.11 0.000193123C2994.67 0.000197707 2942.84 0.000202239 2890.32 0.00020683C2838.11 0.000211394 2786.05 0.000215946 2733.53 0.000220537C2681.55 0.000225081 2629.26 0.000229652 2577.5 0.000234177C2524.99 0.000238768 2472.47 0.000243359 2420.71 0.000247884C2368.42 0.000252455 2316.44 0.000257 2263.92 0.000261591C2211.86 0.000266142 2159.65 0.000270707 2107.14 0.000275298C2055.3 0.000279829 2002.86 0.000284414 1951.11 0.000288938C1898.67 0.000293523 1846.83 0.000298054 1820.2 0.000300383L1794.32 0.000302645L1794.32 261.1Z" fill="#1B182B"/>
</g>
</svg>
