<svg width="7507" height="352" viewBox="0 0 7507 352" fill="none" xmlns="http://www.w3.org/2000/svg">
<path d="M3749 149.2L3775.11 149.2C3801.21 149.2 3853.27 149.2 3905.79 174.092C3957.77 198.68 4010.06 248.921 4061.82 279.75C4114.33 310.58 4166.85 323.521 4218.6 335.7C4270.89 347.88 4322.88 360.821 4375.39 335.7C4427.45 310.58 4479.67 248.921 4532.18 230.042C4584.01 211.621 4636.45 235.98 4688.21 236.208C4740.65 235.98 4792.48 211.621 4845 223.8C4897.21 235.98 4949.27 286.221 5001.79 285.992C5053.77 286.221 5106.06 235.98 5157.82 198.908C5210.33 161.38 5262.85 137.021 5314.6 149.2C5366.89 161.38 5418.88 211.621 5471.39 230.042C5523.45 248.921 5575.67 235.98 5628.18 223.8C5680.01 211.621 5732.45 198.68 5784.21 167.85C5836.65 137.021 5888.48 86.7798 5941 99.4922C5993.21 111.9 6045.27 186.5 6097.79 205.15C6149.77 223.8 6202.06 186.5 6253.82 192.742C6306.33 198.68 6358.85 248.921 6410.6 248.692C6462.89 248.921 6514.88 198.68 6567.39 180.258C6619.45 161.38 6671.67 174.321 6724.18 167.85C6776.01 161.38 6828.45 137.021 6880.21 155.442C6932.65 174.32 6984.48 235.98 7037 242.45C7089.21 248.92 7141.27 198.68 7193.79 167.85C7245.77 137.02 7298.06 124.08 7349.82 136.792C7402.33 149.2 7454.85 186.5 7480.73 205.15L7506.68 223.8L7506.68 4.90315e-05L7480.65 5.13072e-05C7454.54 5.35894e-05 7402.33 5.8154e-05 7349.82 6.27451e-05C7297.98 6.72764e-05 7245.54 7.18609e-05 7193.79 7.63855e-05C7141.35 8.097e-05 7089.52 8.55013e-05 7037 9.00924e-05C6984.79 9.4657e-05 6932.73 9.92082e-05 6880.21 0.000103799C6828.23 0.000108344 6775.94 0.000112915 6724.18 0.00011744C6671.67 0.000122031 6619.15 0.000126622 6567.39 0.000131147C6515.11 0.000135718 6463.12 0.000140262 6410.6 0.000144854C6358.54 0.000149405 6306.33 0.000153969 6253.82 0.00015856C6201.98 0.000163092 6149.54 0.000167676 6097.79 0.000172201C6045.35 0.000176785 5993.52 0.000181317 5941 0.000185908C5888.79 0.000190472 5836.73 0.000195024 5784.21 0.000199615C5732.23 0.000204159 5679.94 0.00020873 5628.18 0.000213255C5575.67 0.000217846 5523.15 0.000222437 5471.39 0.000226962C5419.11 0.000231533 5367.12 0.000236078 5314.6 0.000240669C5262.54 0.00024522 5210.33 0.000249785 5157.82 0.000254376C5105.98 0.000258907 5053.54 0.000263492 5001.79 0.000268016C4949.35 0.000272601 4897.52 0.000277132 4845 0.000281723C4792.79 0.000286288 4740.73 0.000290839 4688.21 0.00029543C4636.23 0.000299975 4583.94 0.000304546 4532.18 0.00030907C4479.67 0.000313662 4427.15 0.000318253 4375.39 0.000322777C4323.11 0.000327349 4271.12 0.000331893 4218.6 0.000336484C4166.54 0.000341036 4114.33 0.0003456 4061.82 0.000350191C4009.98 0.000354722 3957.54 0.000359307 3905.79 0.000363832C3853.35 0.000368416 3801.52 0.000372947 3774.88 0.000375276L3749 0.000377539L3749 149.2Z" fill="#369687"/>
<path opacity="0.9" d="M3749 223.8L3775.11 230.042C3801.21 235.98 3853.27 248.921 3905.79 236.208C3957.77 223.8 4010.06 186.5 4061.82 192.742C4114.33 198.68 4166.85 248.921 4218.6 236.208C4270.89 223.8 4322.88 149.2 4375.39 111.9C4427.45 74.6003 4479.67 74.6003 4532.18 87.0082C4584.01 99.7207 4636.45 124.08 4688.21 161.608C4740.65 198.68 4792.48 248.921 4845 261.1C4897.21 273.28 4949.27 248.921 5001.79 205.15C5053.77 161.38 5106.06 99.7206 5157.82 93.2502C5210.33 86.7798 5262.85 137.021 5314.6 186.5C5366.89 235.98 5418.88 286.221 5471.39 298.4C5523.45 310.58 5575.67 286.221 5628.18 254.858C5680.01 223.8 5732.45 186.5 5784.21 205.15C5836.65 223.8 5888.48 298.4 5941 317.05C5993.21 335.7 6045.27 298.4 6097.79 292.158C6149.77 286.22 6202.06 310.58 6253.82 323.292C6306.33 335.7 6358.85 335.7 6410.6 298.4C6462.89 261.1 6514.88 186.5 6567.39 142.958C6619.45 99.7205 6671.67 86.7797 6724.18 118.142C6776.01 149.2 6828.45 223.8 6880.21 273.508C6932.65 323.52 6984.48 347.88 7037 317.05C7089.21 286.22 7141.27 198.68 7193.79 192.742C7245.77 186.5 7298.06 261.1 7349.82 285.992C7402.33 310.58 7454.85 286.22 7480.73 273.508L7506.68 261.1L7506.68 3.63418e-05L7480.65 3.86175e-05C7454.54 4.08997e-05 7402.33 4.54643e-05 7349.82 5.00554e-05C7297.98 5.45867e-05 7245.54 5.91712e-05 7193.79 6.36958e-05C7141.35 6.82803e-05 7089.52 7.28116e-05 7037 7.74027e-05C6984.79 8.19673e-05 6932.73 8.65185e-05 6880.21 9.11096e-05C6828.23 9.56542e-05 6775.94 0.000100225 6724.18 0.00010475C6671.67 0.000109341 6619.15 0.000113932 6567.39 0.000118457C6515.11 0.000123028 6463.12 0.000127573 6410.6 0.000132164C6358.54 0.000136715 6306.33 0.00014128 6253.82 0.000145871C6201.98 0.000150402 6149.54 0.000154987 6097.79 0.000159511C6045.35 0.000164096 5993.52 0.000168627 5941 0.000173218C5888.79 0.000177783 5836.73 0.000182334 5784.21 0.000186925C5732.23 0.00019147 5679.94 0.000196041 5628.18 0.000200565C5575.67 0.000205157 5523.15 0.000209748 5471.39 0.000214272C5419.11 0.000218844 5367.12 0.000223388 5314.6 0.000227979C5262.54 0.00023253 5210.33 0.000237095 5157.82 0.000241686C5105.98 0.000246217 5053.54 0.000250802 5001.79 0.000255327C4949.35 0.000259911 4897.52 0.000264442 4845 0.000269033C4792.79 0.000273598 4740.73 0.000278149 4688.21 0.00028274C4636.23 0.000287285 4583.94 0.000291856 4532.18 0.000296381C4479.67 0.000300972 4427.15 0.000305563 4375.39 0.000310088C4323.11 0.000314659 4271.12 0.000319203 4218.6 0.000323795C4166.54 0.000328346 4114.33 0.00033291 4061.82 0.000337502C4009.98 0.000342033 3957.54 0.000346617 3905.79 0.000351142C3853.35 0.000355726 3801.52 0.000360258 3774.88 0.000362587L3749 0.000364849L3749 223.8Z" fill="#514983"/>
<path opacity="0.8" d="M3749 261.1L3775.11 279.75C3801.21 298.4 3853.27 335.7 3905.79 329.458C3957.77 323.521 4010.06 273.28 4061.82 223.8C4114.33 174.321 4166.85 124.08 4218.6 142.958C4270.89 161.38 4322.88 248.921 4375.39 261.1C4427.45 273.28 4479.67 211.621 4532.18 167.85C4584.01 124.08 4636.45 99.7206 4688.21 136.792C4740.65 174.321 4792.48 273.28 4845 317.05C4897.21 360.82 4949.27 347.88 5001.79 348.108C5053.77 347.88 5106.06 360.82 5157.82 335.7C5210.33 310.58 5262.85 248.92 5314.6 236.208C5366.89 223.8 5418.88 261.1 5471.39 273.508C5523.45 286.22 5575.67 273.28 5628.18 230.042C5680.01 186.5 5732.45 111.9 5784.21 74.6001C5836.65 37.3001 5888.48 37.3001 5941 74.6001C5993.21 111.9 6045.27 186.5 6097.79 211.392C6149.77 235.98 6202.06 211.62 6253.82 223.8C6306.33 235.98 6358.85 286.22 6410.6 273.508C6462.89 261.1 6514.88 186.5 6567.39 149.2C6619.45 111.9 6671.67 111.9 6724.18 118.142C6776.01 124.08 6828.45 137.02 6880.21 136.792C6932.65 137.02 6984.48 124.08 7037 149.2C7089.21 174.32 7141.27 235.98 7193.79 236.208C7245.77 235.98 7298.06 174.32 7349.82 174.092C7402.33 174.32 7454.85 235.979 7480.73 267.342L7506.68 298.4L7506.68 -2.58618e-05L7480.65 -2.35862e-05C7454.54 -2.13039e-05 7402.33 -1.67394e-05 7349.82 -1.21482e-05C7297.98 -7.61696e-06 7245.54 -3.03246e-06 7193.79 1.49215e-06C7141.35 6.07665e-06 7089.52 1.06079e-05 7037 1.51991e-05C6984.79 1.97636e-05 6932.73 2.43148e-05 6880.21 2.8906e-05C6828.23 3.34506e-05 6775.94 3.80218e-05 6724.18 4.25464e-05C6671.67 4.71375e-05 6619.15 5.17287e-05 6567.39 5.62533e-05C6515.11 6.08245e-05 6463.12 6.53691e-05 6410.6 6.99602e-05C6358.54 7.45114e-05 6306.33 7.9076e-05 6253.82 8.36671e-05C6201.98 8.81984e-05 6149.54 9.27829e-05 6097.79 9.73075e-05C6045.35 0.000101892 5993.52 0.000106423 5941 0.000111014C5888.79 0.000115579 5836.73 0.00012013 5784.21 0.000124721C5732.23 0.000129266 5679.94 0.000133837 5628.18 0.000138362C5575.67 0.000142953 5523.15 0.000147544 5471.39 0.000152069C5419.11 0.00015664 5367.12 0.000161184 5314.6 0.000165776C5262.54 0.000170327 5210.33 0.000174891 5157.82 0.000179483C5105.98 0.000184014 5053.54 0.000188598 5001.79 0.000193123C4949.35 0.000197707 4897.52 0.000202239 4845 0.00020683C4792.79 0.000211394 4740.73 0.000215946 4688.21 0.000220537C4636.23 0.000225081 4583.94 0.000229652 4532.18 0.000234177C4479.67 0.000238768 4427.15 0.000243359 4375.39 0.000247884C4323.11 0.000252455 4271.12 0.000257 4218.6 0.000261591C4166.54 0.000266142 4114.33 0.000270707 4061.82 0.000275298C4009.98 0.000279829 3957.54 0.000284414 3905.79 0.000288938C3853.35 0.000293523 3801.52 0.000298054 3774.88 0.000300383L3749 0.000302645L3749 261.1Z" fill="#1B182B"/>
<path d="M3757.68 149.2L3731.58 149.2C3705.47 149.2 3653.41 149.2 3600.89 174.092C3548.91 198.68 3496.62 248.921 3444.86 279.75C3392.35 310.58 3339.83 323.521 3288.08 335.7C3235.79 347.88 3183.8 360.821 3131.29 335.7C3079.23 310.58 3027.01 248.921 2974.5 230.042C2922.67 211.621 2870.23 235.98 2818.47 236.208C2766.03 235.98 2714.2 211.621 2661.68 223.8C2609.47 235.98 2557.41 286.221 2504.89 285.992C2452.91 286.221 2400.62 235.98 2348.86 198.908C2296.35 161.38 2243.83 137.021 2192.08 149.2C2139.79 161.38 2087.8 211.621 2035.29 230.042C1983.23 248.921 1931.01 235.98 1878.5 223.8C1826.67 211.621 1774.23 198.68 1722.47 167.85C1670.03 137.021 1618.2 86.7798 1565.68 99.4922C1513.47 111.9 1461.41 186.5 1408.89 205.15C1356.91 223.8 1304.62 186.5 1252.86 192.742C1200.35 198.68 1147.83 248.921 1096.08 248.692C1043.79 248.921 991.804 198.68 939.287 180.258C887.227 161.38 835.015 174.321 782.498 167.85C730.667 161.38 678.226 137.021 626.47 155.442C574.03 174.32 522.198 235.98 469.682 242.45C417.469 248.92 365.409 198.68 312.893 167.85C260.909 137.02 208.62 124.08 156.865 136.792C104.348 149.2 51.8315 186.5 25.9537 205.15L-0.000233196 223.8L-0.000213631 4.90315e-05L26.0299 5.13072e-05C52.136 5.35894e-05 104.348 5.8154e-05 156.865 6.27451e-05C208.697 6.72764e-05 261.137 7.18609e-05 312.893 7.63855e-05C365.333 8.097e-05 417.165 8.55013e-05 469.682 9.00924e-05C521.894 9.4657e-05 573.954 9.92082e-05 626.47 0.000103799C678.454 0.000108344 730.743 0.000112915 782.498 0.00011744C835.015 0.000122031 887.532 0.000126622 939.287 0.000131147C991.575 0.000135718 1043.56 0.000140262 1096.08 0.000144854C1148.14 0.000149405 1200.35 0.000153969 1252.86 0.00015856C1304.7 0.000163092 1357.14 0.000167676 1408.89 0.000172201C1461.33 0.000176785 1513.16 0.000181317 1565.68 0.000185908C1617.89 0.000190472 1669.95 0.000195024 1722.47 0.000199615C1774.45 0.000204159 1826.74 0.00020873 1878.5 0.000213255C1931.01 0.000217846 1983.53 0.000222437 2035.29 0.000226962C2087.58 0.000231533 2139.56 0.000236078 2192.08 0.000240669C2244.14 0.00024522 2296.35 0.000249785 2348.86 0.000254376C2400.7 0.000258907 2453.14 0.000263492 2504.89 0.000268016C2557.33 0.000272601 2609.16 0.000277132 2661.68 0.000281723C2713.89 0.000286288 2765.95 0.000290839 2818.47 0.00029543C2870.45 0.000299975 2922.74 0.000304546 2974.5 0.00030907C3027.01 0.000313662 3079.53 0.000318253 3131.29 0.000322777C3183.58 0.000327349 3235.56 0.000331893 3288.08 0.000336484C3340.14 0.000341036 3392.35 0.0003456 3444.86 0.000350191C3496.7 0.000354722 3549.14 0.000359307 3600.89 0.000363832C3653.33 0.000368416 3705.17 0.000372947 3731.8 0.000375276L3757.68 0.000377539L3757.68 149.2Z" fill="#369687"/>
<path opacity="0.9" d="M3757.68 223.8L3731.58 230.042C3705.47 235.98 3653.41 248.921 3600.89 236.208C3548.91 223.8 3496.62 186.5 3444.86 192.742C3392.35 198.68 3339.83 248.921 3288.08 236.208C3235.79 223.8 3183.8 149.2 3131.29 111.9C3079.23 74.6003 3027.01 74.6003 2974.5 87.0082C2922.67 99.7207 2870.23 124.08 2818.47 161.608C2766.03 198.68 2714.2 248.921 2661.68 261.1C2609.47 273.28 2557.41 248.921 2504.89 205.15C2452.91 161.38 2400.62 99.7206 2348.86 93.2502C2296.35 86.7798 2243.83 137.021 2192.08 186.5C2139.79 235.98 2087.8 286.221 2035.29 298.4C1983.23 310.58 1931.01 286.221 1878.5 254.858C1826.67 223.8 1774.23 186.5 1722.47 205.15C1670.03 223.8 1618.2 298.4 1565.68 317.05C1513.47 335.7 1461.41 298.4 1408.89 292.158C1356.91 286.22 1304.62 310.58 1252.86 323.292C1200.35 335.7 1147.83 335.7 1096.08 298.4C1043.79 261.1 991.804 186.5 939.287 142.958C887.227 99.7205 835.015 86.7797 782.498 118.142C730.667 149.2 678.226 223.8 626.47 273.508C574.03 323.52 522.198 347.88 469.682 317.05C417.469 286.22 365.409 198.68 312.893 192.742C260.909 186.5 208.62 261.1 156.865 285.992C104.348 310.58 51.8315 286.22 25.9537 273.508L-0.000238151 261.1L-0.000215325 3.63418e-05L26.0299 3.86175e-05C52.136 4.08997e-05 104.348 4.54643e-05 156.865 5.00554e-05C208.697 5.45867e-05 261.137 5.91712e-05 312.893 6.36958e-05C365.333 6.82803e-05 417.165 7.28116e-05 469.682 7.74027e-05C521.894 8.19673e-05 573.954 8.65185e-05 626.47 9.11096e-05C678.454 9.56542e-05 730.743 0.000100225 782.498 0.00010475C835.015 0.000109341 887.532 0.000113932 939.287 0.000118457C991.575 0.000123028 1043.56 0.000127573 1096.08 0.000132164C1148.14 0.000136715 1200.35 0.00014128 1252.86 0.000145871C1304.7 0.000150402 1357.14 0.000154987 1408.89 0.000159511C1461.33 0.000164096 1513.16 0.000168627 1565.68 0.000173218C1617.89 0.000177783 1669.95 0.000182334 1722.47 0.000186925C1774.45 0.00019147 1826.74 0.000196041 1878.5 0.000200565C1931.01 0.000205157 1983.53 0.000209748 2035.29 0.000214272C2087.58 0.000218844 2139.56 0.000223388 2192.08 0.000227979C2244.14 0.00023253 2296.35 0.000237095 2348.86 0.000241686C2400.7 0.000246217 2453.14 0.000250802 2504.89 0.000255327C2557.33 0.000259911 2609.16 0.000264442 2661.68 0.000269033C2713.89 0.000273598 2765.95 0.000278149 2818.47 0.00028274C2870.45 0.000287285 2922.74 0.000291856 2974.5 0.000296381C3027.01 0.000300972 3079.53 0.000305563 3131.29 0.000310088C3183.58 0.000314659 3235.56 0.000319203 3288.08 0.000323795C3340.14 0.000328346 3392.35 0.00033291 3444.86 0.000337502C3496.7 0.000342033 3549.14 0.000346617 3600.89 0.000351142C3653.33 0.000355726 3705.17 0.000360258 3731.8 0.000362587L3757.68 0.000364849L3757.68 223.8Z" fill="#514983"/>
<path opacity="0.8" d="M3757.68 261.1L3731.58 279.75C3705.47 298.4 3653.41 335.7 3600.89 329.458C3548.91 323.521 3496.62 273.28 3444.86 223.8C3392.35 174.321 3339.83 124.08 3288.08 142.958C3235.79 161.38 3183.8 248.921 3131.29 261.1C3079.23 273.28 3027.01 211.621 2974.5 167.85C2922.67 124.08 2870.23 99.7206 2818.47 136.792C2766.03 174.321 2714.2 273.28 2661.68 317.05C2609.47 360.82 2557.41 347.88 2504.89 348.108C2452.91 347.88 2400.62 360.82 2348.86 335.7C2296.35 310.58 2243.83 248.92 2192.08 236.208C2139.79 223.8 2087.8 261.1 2035.29 273.508C1983.23 286.22 1931.01 273.28 1878.5 230.042C1826.67 186.5 1774.23 111.9 1722.47 74.6001C1670.03 37.3001 1618.2 37.3001 1565.68 74.6001C1513.47 111.9 1461.41 186.5 1408.89 211.392C1356.91 235.98 1304.62 211.62 1252.86 223.8C1200.35 235.98 1147.83 286.22 1096.08 273.508C1043.79 261.1 991.804 186.5 939.287 149.2C887.227 111.9 835.015 111.9 782.498 118.142C730.667 124.08 678.226 137.02 626.47 136.792C574.03 137.02 522.198 124.08 469.682 149.2C417.469 174.32 365.409 235.98 312.893 236.208C260.909 235.98 208.62 174.32 156.865 174.092C104.348 174.32 51.8315 235.979 25.9537 267.342L-0.000239617 298.4L-0.00021353 -2.58618e-05L26.0299 -2.35862e-05C52.136 -2.13039e-05 104.348 -1.67394e-05 156.865 -1.21482e-05C208.697 -7.61696e-06 261.137 -3.03246e-06 312.893 1.49215e-06C365.333 6.07665e-06 417.165 1.06079e-05 469.682 1.51991e-05C521.894 1.97636e-05 573.954 2.43148e-05 626.47 2.8906e-05C678.454 3.34506e-05 730.743 3.80218e-05 782.498 4.25464e-05C835.015 4.71375e-05 887.532 5.17287e-05 939.287 5.62533e-05C991.575 6.08245e-05 1043.56 6.53691e-05 1096.08 6.99602e-05C1148.14 7.45114e-05 1200.35 7.9076e-05 1252.86 8.36671e-05C1304.7 8.81984e-05 1357.14 9.27829e-05 1408.89 9.73075e-05C1461.33 0.000101892 1513.16 0.000106423 1565.68 0.000111014C1617.89 0.000115579 1669.95 0.00012013 1722.47 0.000124721C1774.45 0.000129266 1826.74 0.000133837 1878.5 0.000138362C1931.01 0.000142953 1983.53 0.000147544 2035.29 0.000152069C2087.58 0.00015664 2139.56 0.000161184 2192.08 0.000165776C2244.14 0.000170327 2296.35 0.000174891 2348.86 0.000179483C2400.7 0.000184014 2453.14 0.000188598 2504.89 0.000193123C2557.33 0.000197707 2609.16 0.000202239 2661.68 0.00020683C2713.89 0.000211394 2765.95 0.000215946 2818.47 0.000220537C2870.45 0.000225081 2922.74 0.000229652 2974.5 0.000234177C3027.01 0.000238768 3079.53 0.000243359 3131.29 0.000247884C3183.58 0.000252455 3235.56 0.000257 3288.08 0.000261591C3340.14 0.000266142 3392.35 0.000270707 3444.86 0.000275298C3496.7 0.000279829 3549.14 0.000284414 3600.89 0.000288938C3653.33 0.000293523 3705.17 0.000298054 3731.8 0.000300383L3757.68 0.000302645L3757.68 261.1Z" fill="#1B182B"/>
</svg>
