<svg width="3858" height="451" viewBox="0 0 3858 451" fill="none" xmlns="http://www.w3.org/2000/svg">
<g filter="url(#filter0_d)">
<path d="M49.9997 199.2L76.1058 199.2C102.212 199.2 154.272 199.2 206.789 224.092C258.773 248.68 311.061 298.92 362.816 329.75C415.333 360.58 467.85 373.52 519.605 385.7C571.894 397.88 623.878 410.82 676.394 385.7C728.454 360.58 780.666 298.92 833.183 280.042C885.015 261.62 937.455 285.98 989.211 286.208C1041.65 285.98 1093.48 261.62 1146 273.8C1198.21 285.98 1250.27 336.22 1302.79 335.992C1354.77 336.22 1407.06 285.98 1458.82 248.908C1511.33 211.38 1563.85 187.02 1615.61 199.2C1667.89 211.38 1719.88 261.62 1772.39 280.042C1824.45 298.92 1876.67 285.98 1929.18 273.8C1981.01 261.62 2033.46 248.68 2085.21 217.85C2137.65 187.02 2189.48 136.78 2242 149.492C2294.21 161.9 2346.27 236.5 2398.79 255.15C2450.77 273.8 2503.06 236.5 2554.82 242.742C2607.33 248.679 2659.85 298.92 2711.61 298.692C2763.89 298.92 2815.88 248.679 2868.39 230.258C2920.45 211.379 2972.67 224.32 3025.18 217.85C3077.01 211.379 3129.46 187.02 3181.21 205.442C3233.65 224.32 3285.48 285.979 3338 292.45C3390.21 298.92 3442.27 248.679 3494.79 217.85C3546.77 187.02 3599.06 174.079 3650.82 186.792C3703.33 199.2 3755.85 236.5 3781.73 255.15L3807.68 273.8L3807.68 49.9998L3781.65 49.9998C3755.55 49.9998 3703.33 49.9998 3650.82 49.9998C3598.98 49.9998 3546.54 49.9998 3494.79 49.9998C3442.35 49.9998 3390.52 49.9998 3338 49.9998C3285.79 49.9999 3233.73 49.9999 3181.21 49.9999C3129.23 49.9999 3076.94 49.9999 3025.18 49.9999C2972.67 49.9999 2920.15 49.9999 2868.39 49.9999C2816.11 49.9999 2764.12 49.9999 2711.61 49.9999C2659.55 49.9999 2607.33 49.9999 2554.82 49.9999C2502.98 49.9999 2450.54 49.9999 2398.79 49.9999C2346.35 49.9999 2294.52 49.9999 2242 49.9999C2189.79 49.9999 2137.73 50 2085.21 50C2033.23 50 1980.94 50 1929.18 50C1876.67 50 1824.15 50 1772.39 50C1720.11 50 1668.12 50 1615.61 50C1563.55 50 1511.33 50 1458.82 50C1406.98 50 1354.54 50 1302.79 50C1250.35 50 1198.52 50 1146 50C1093.79 50 1041.73 50 989.211 50.0001C937.227 50.0001 884.939 50.0001 833.183 50.0001C780.666 50.0001 728.15 50.0001 676.394 50.0001C624.106 50.0001 572.122 50.0001 519.605 50.0001C467.545 50.0001 415.333 50.0001 362.816 50.0001C310.985 50.0001 258.544 50.0001 206.789 50.0001C154.348 50.0001 102.516 50.0001 75.8775 50.0001L49.9997 50.0001L49.9997 199.2Z" fill="#369687"/>
</g>
<path opacity="0.9" d="M49.9997 273.8L76.1059 280.042C102.212 285.98 154.272 298.92 206.789 286.208C258.773 273.8 311.061 236.5 362.816 242.742C415.333 248.68 467.85 298.92 519.605 286.208C571.894 273.8 623.878 199.2 676.394 161.9C728.454 124.6 780.666 124.6 833.183 137.008C885.015 149.72 937.455 174.08 989.211 211.608C1041.65 248.68 1093.48 298.92 1146 311.1C1198.21 323.28 1250.27 298.92 1302.79 255.15C1354.77 211.38 1407.06 149.72 1458.82 143.25C1511.33 136.78 1563.85 187.02 1615.61 236.5C1667.89 285.979 1719.88 336.22 1772.39 348.4C1824.45 360.579 1876.67 336.22 1929.18 304.858C1981.01 273.8 2033.46 236.5 2085.21 255.15C2137.65 273.8 2189.48 348.4 2242 367.05C2294.21 385.7 2346.27 348.4 2398.79 342.158C2450.77 336.22 2503.06 360.579 2554.82 373.292C2607.33 385.7 2659.85 385.7 2711.61 348.4C2763.89 311.1 2815.88 236.5 2868.39 192.958C2920.45 149.72 2972.67 136.779 3025.18 168.142C3077.01 199.2 3129.46 273.8 3181.21 323.508C3233.65 373.52 3285.48 397.879 3338 367.05C3390.21 336.22 3442.27 248.679 3494.79 242.742C3546.77 236.5 3599.06 311.1 3650.82 335.992C3703.33 360.579 3755.85 336.22 3781.73 323.508L3807.68 311.1L3807.68 49.9998L3781.65 49.9998C3755.55 49.9998 3703.33 49.9998 3650.82 49.9998C3598.98 49.9998 3546.54 49.9998 3494.79 49.9998C3442.35 49.9998 3390.52 49.9998 3338 49.9998C3285.79 49.9998 3233.73 49.9998 3181.21 49.9998C3129.23 49.9999 3076.94 49.9999 3025.18 49.9999C2972.67 49.9999 2920.15 49.9999 2868.39 49.9999C2816.11 49.9999 2764.12 49.9999 2711.61 49.9999C2659.55 49.9999 2607.33 49.9999 2554.82 49.9999C2502.98 49.9999 2450.54 49.9999 2398.79 49.9999C2346.35 49.9999 2294.52 49.9999 2242 49.9999C2189.79 49.9999 2137.73 49.9999 2085.21 49.9999C2033.23 49.9999 1980.94 50 1929.18 50C1876.67 50 1824.15 50 1772.39 50C1720.11 50 1668.12 50 1615.61 50C1563.55 50 1511.33 50 1458.82 50C1406.98 50 1354.54 50 1302.79 50C1250.35 50 1198.52 50 1146 50C1093.79 50 1041.73 50 989.211 50C937.227 50 884.939 50 833.183 50.0001C780.666 50.0001 728.15 50.0001 676.394 50.0001C624.106 50.0001 572.122 50.0001 519.605 50.0001C467.545 50.0001 415.333 50.0001 362.816 50.0001C310.985 50.0001 258.544 50.0001 206.789 50.0001C154.348 50.0001 102.516 50.0001 75.8775 50.0001L49.9997 50.0001L49.9997 273.8Z" fill="#514983"/>
<path opacity="0.8" d="M49.9997 311.1L76.1059 329.75C102.212 348.4 154.272 385.7 206.789 379.458C258.773 373.52 311.061 323.28 362.816 273.8C415.333 224.32 467.85 174.08 519.605 192.958C571.894 211.38 623.878 298.92 676.394 311.1C728.454 323.28 780.666 261.62 833.183 217.85C885.015 174.08 937.455 149.72 989.211 186.792C1041.65 224.32 1093.48 323.279 1146 367.05C1198.21 410.82 1250.27 397.879 1302.79 398.108C1354.77 397.879 1407.06 410.82 1458.82 385.7C1511.33 360.579 1563.85 298.92 1615.61 286.208C1667.89 273.8 1719.88 311.1 1772.39 323.508C1824.45 336.22 1876.67 323.279 1929.18 280.042C1981.01 236.5 2033.46 161.9 2085.21 124.6C2137.65 87.2999 2189.48 87.2999 2242 124.6C2294.21 161.9 2346.27 236.5 2398.79 261.392C2450.77 285.979 2503.06 261.62 2554.82 273.8C2607.33 285.979 2659.85 336.22 2711.61 323.508C2763.89 311.1 2815.88 236.5 2868.39 199.2C2920.45 161.9 2972.67 161.9 3025.18 168.142C3077.01 174.079 3129.46 187.02 3181.21 186.792C3233.65 187.02 3285.48 174.079 3338 199.2C3390.21 224.32 3442.27 285.979 3494.79 286.208C3546.77 285.979 3599.06 224.32 3650.82 224.092C3703.33 224.32 3755.85 285.979 3781.73 317.342L3807.68 348.4L3807.68 49.9997L3781.65 49.9997C3755.55 49.9997 3703.33 49.9997 3650.82 49.9997C3598.98 49.9997 3546.54 49.9998 3494.79 49.9998C3442.35 49.9998 3390.52 49.9998 3338 49.9998C3285.79 49.9998 3233.73 49.9998 3181.21 49.9998C3129.23 49.9998 3076.94 49.9998 3025.18 49.9998C2972.67 49.9998 2920.15 49.9998 2868.39 49.9998C2816.11 49.9998 2764.12 49.9998 2711.61 49.9998C2659.55 49.9998 2607.33 49.9998 2554.82 49.9998C2502.98 49.9998 2450.54 49.9998 2398.79 49.9999C2346.35 49.9999 2294.52 49.9999 2242 49.9999C2189.79 49.9999 2137.73 49.9999 2085.21 49.9999C2033.23 49.9999 1980.94 49.9999 1929.18 49.9999C1876.67 49.9999 1824.15 49.9999 1772.39 49.9999C1720.11 49.9999 1668.12 49.9999 1615.61 49.9999C1563.55 49.9999 1511.33 49.9999 1458.82 49.9999C1406.98 49.9999 1354.54 49.9999 1302.79 49.9999C1250.35 50 1198.52 50 1146 50C1093.79 50 1041.73 50 989.211 50C937.227 50 884.939 50 833.183 50C780.666 50 728.15 50 676.394 50C624.106 50 572.122 50 519.605 50C467.545 50 415.333 50 362.816 50C310.985 50 258.544 50 206.789 50C154.348 50 102.516 50.0001 75.8775 50.0001L49.9997 50.0001L49.9997 311.1Z" fill="#1B182B"/>
<defs>
<filter id="filter0_d" x="-0.000244141" y="-0.000244141" width="3857.68" height="450.086" filterUnits="userSpaceOnUse" color-interpolation-filters="sRGB">
<feFlood flood-opacity="0" result="BackgroundImageFix"/>
<feColorMatrix in="SourceAlpha" type="matrix" values="0 0 0 0 0 0 0 0 0 0 0 0 0 0 0 0 0 0 127 0" result="hardAlpha"/>
<feOffset/>
<feGaussianBlur stdDeviation="25"/>
<feColorMatrix type="matrix" values="0 0 0 0 0.211765 0 0 0 0 0.588235 0 0 0 0 0.529412 0 0 0 1 0"/>
<feBlend mode="normal" in2="BackgroundImageFix" result="effect1_dropShadow"/>
<feBlend mode="normal" in="SourceGraphic" in2="effect1_dropShadow" result="shape"/>
</filter>
</defs>
</svg>
