<svg aria-hidden="true" focusable="false" data-prefix="fad" data-icon="level-down-alt" class="svg-inline--fa fa-level-down-alt fa-w-10" role="img" xmlns="http://www.w3.org/2000/svg" viewBox="0 0 320 512"><g class="fa-group"><path class="fa-secondary" fill="currentColor" d="M152 352V80H68a12 12 0 0 1-8.48-3.52l-56-56A12 12 0 0 1 12 0h196a24 24 0 0 1 24 24v328z" opacity="0.4"></path><path class="fa-primary" fill="currentColor" d="M296 352c20.87 0 31.85 25 17.58 40.33l-104 112a24 24 0 0 1-33.91 1.26c-.44-.4-.86-.83-1.26-1.26l-104-112C56.25 377 67.07 352 88 352z"></path></g></svg>