<svg width="60" height="60" viewBox="0 0 60 60" fill="none" xmlns="http://www.w3.org/2000/svg">
<g clip-path="url(#clip0)" filter="url(#filter0_d)">
<path d="M30.4827 5.28309C30.1913 5.28762 29.9136 5.4068 29.7106 5.61448C29.5076 5.82216 29.3959 6.10138 29.3998 6.39084V8.57646C29.3978 8.72127 29.4247 8.86505 29.4791 8.99943C29.5334 9.13381 29.6141 9.25612 29.7165 9.35925C29.8188 9.46237 29.9408 9.54427 30.0753 9.60016C30.2097 9.65606 30.3541 9.68484 30.4998 9.68484C30.6456 9.68484 30.79 9.65606 30.9244 9.60016C31.0589 9.54427 31.1809 9.46237 31.2832 9.35925C31.3856 9.25612 31.4663 9.13381 31.5206 8.99943C31.575 8.86505 31.6019 8.72127 31.5998 8.57646V6.39084C31.6019 6.24464 31.5743 6.09952 31.5189 5.96407C31.4634 5.82863 31.3812 5.70562 31.277 5.60232C31.1728 5.49903 31.0488 5.41755 30.9124 5.36272C30.776 5.30789 30.6298 5.28081 30.4827 5.28309V5.28309ZM12.8891 10.7514C12.6703 10.7515 12.4564 10.8164 12.2749 10.9378C12.0934 11.0592 11.9525 11.2317 11.8701 11.4331C11.7878 11.6345 11.7678 11.8557 11.8127 12.0685C11.8576 12.2813 11.9653 12.4759 12.1221 12.6275L14.3221 14.8132C14.4235 14.918 14.5449 15.0018 14.6792 15.0595C14.8136 15.1172 14.9581 15.1476 15.1045 15.1491C15.2508 15.1506 15.396 15.123 15.5315 15.0681C15.667 15.0131 15.7901 14.9319 15.8936 14.8291C15.9971 14.7262 16.0789 14.604 16.1342 14.4693C16.1895 14.3347 16.2172 14.1905 16.2157 14.0451C16.2142 13.8997 16.1836 13.7561 16.1255 13.6226C16.0674 13.4892 15.9832 13.3686 15.8776 13.2679L13.6776 11.0822C13.5751 10.9776 13.4525 10.8943 13.3171 10.8375C13.1816 10.7807 13.0361 10.7514 12.8891 10.7514ZM48.0784 10.7514C47.7926 10.7599 47.5214 10.8785 47.3221 11.0822L45.1221 13.2679C45.0165 13.3686 44.9323 13.4892 44.8742 13.6226C44.8161 13.7561 44.7855 13.8997 44.784 14.0451C44.7825 14.1905 44.8102 14.3347 44.8655 14.4693C44.9208 14.604 45.0026 14.7262 45.1061 14.8291C45.2096 14.9319 45.3327 15.0131 45.4682 15.0681C45.6037 15.123 45.7489 15.1506 45.8952 15.1491C46.0416 15.1476 46.1861 15.1172 46.3205 15.0595C46.4548 15.0018 46.5762 14.918 46.6776 14.8132L48.8776 12.6275C49.0365 12.474 49.1451 12.2764 49.1891 12.0606C49.233 11.8447 49.2103 11.6207 49.1239 11.4179C49.0375 11.2151 48.8915 11.0429 48.7049 10.924C48.5183 10.8051 48.2999 10.7449 48.0784 10.7514V10.7514ZM27.1998 12.9477C25.5694 12.9477 24.3228 13.9642 23.5668 15.2827C23.3089 15.2342 23.0738 15.1333 22.7998 15.1333C20.3828 15.1333 18.3998 17.1033 18.3998 19.5046C18.3998 19.5832 18.434 19.6433 18.4385 19.7201C16.5425 20.2058 15.0998 21.8476 15.0998 23.8758C15.0998 24.6966 15.3928 25.4215 15.7916 26.0764C14.7764 26.8758 13.9998 27.9588 13.9998 29.3399C13.9998 30.7209 14.7764 31.8039 15.7916 32.6034C15.3928 33.2582 15.0998 33.9832 15.0998 34.8039C15.0998 36.8321 16.5425 38.4739 18.4385 38.9596C18.434 39.0364 18.3998 39.0965 18.3998 39.1752C18.3998 41.5764 20.3828 43.5464 22.7998 43.5464C23.0738 43.5464 23.3089 43.4455 23.5668 43.397C24.3228 44.7156 25.5694 45.732 27.1998 45.732C28.5131 45.732 29.6873 45.1408 30.4977 44.2251C31.3021 45.1394 32.467 45.732 33.7784 45.732C35.4088 45.732 36.6554 44.7156 37.4114 43.397C37.6693 43.4455 37.9044 43.5464 38.1784 43.5464C40.5954 43.5464 42.5784 41.5764 42.5784 39.1752C42.5784 39.0964 42.5421 39.0366 42.5375 38.9596C44.434 38.4742 45.8784 36.8324 45.8784 34.8039C45.8784 33.9832 45.5855 33.2582 45.1866 32.6034C46.2018 31.8039 46.9784 30.7209 46.9784 29.3399C46.9784 27.9588 46.2018 26.8758 45.1866 26.0764C45.5855 25.4215 45.8784 24.6966 45.8784 23.8758C45.8784 21.8481 44.4351 20.2062 42.5397 19.7201C42.5442 19.6433 42.5784 19.5832 42.5784 19.5046C42.5784 17.1033 40.5954 15.1333 38.1784 15.1333C37.9044 15.1333 37.6693 15.2342 37.4114 15.2827C36.6554 13.9642 35.4088 12.9477 33.7784 12.9477C32.467 12.9477 31.3021 13.5408 30.4977 14.4546C29.6873 13.5391 28.5134 12.9477 27.1998 12.9477ZM27.1998 15.1333C28.3742 15.1333 29.321 16.0323 29.3998 17.1695V24.9686C26.9828 24.9686 24.9998 26.9386 24.9998 29.3399C24.9978 29.4847 25.0247 29.6284 25.0791 29.7628C25.1334 29.8972 25.2141 30.0195 25.3165 30.1226C25.4188 30.2258 25.5408 30.3077 25.6753 30.3636C25.8097 30.4195 25.9541 30.4482 26.0998 30.4482C26.2456 30.4482 26.39 30.4195 26.5244 30.3636C26.6589 30.3077 26.7809 30.2258 26.8832 30.1226C26.9856 30.0195 27.0663 29.8972 27.1206 29.7628C27.175 29.6284 27.2019 29.4847 27.1998 29.3399C27.1998 28.1196 28.1715 27.1542 29.3998 27.1542V34.8039V41.508C29.3209 42.6467 28.3742 43.5464 27.1998 43.5464C26.1762 43.5464 25.344 42.8613 25.0901 41.9285C25.0496 41.7795 24.9779 41.6406 24.8795 41.5211C24.7811 41.4015 24.6583 41.3041 24.5193 41.2351C24.3802 41.1662 24.2281 41.1272 24.0728 41.1209C23.9175 41.1146 23.7626 41.1411 23.6184 41.1986C23.3557 41.3034 23.084 41.3608 22.7998 41.3608C21.5715 41.3608 20.5998 40.3955 20.5998 39.1752C20.5998 39.1376 20.6083 39.0995 20.6106 39.062C20.954 38.9975 21.34 38.8975 21.7493 38.6928C22.8132 38.1605 23.8998 36.8421 23.8998 34.8039C23.9019 34.6577 23.8743 34.5126 23.8189 34.3771C23.7634 34.2417 23.6812 34.1187 23.577 34.0154C23.4728 33.9121 23.3488 33.8306 23.2124 33.7758C23.076 33.721 22.9298 33.6939 22.7827 33.6962C22.4913 33.7007 22.2136 33.8199 22.0106 34.0276C21.8076 34.2352 21.6959 34.5144 21.6998 34.8039C21.6998 36.1884 21.2404 36.4989 20.7588 36.7398C20.2773 36.9807 19.7684 36.9703 19.7684 36.9703C19.7648 36.9703 19.7612 36.9703 19.7577 36.9703C19.7247 36.9689 19.6918 36.9689 19.6588 36.9703C19.6524 36.9703 19.6459 36.9703 19.6395 36.9703C19.5726 36.9745 19.6237 36.9739 19.5922 36.9767C19.5685 36.9795 19.5448 36.9831 19.5213 36.9874C19.5298 36.9877 19.4849 36.9895 19.4998 36.9895C18.2715 36.9895 17.2998 36.0242 17.2998 34.8039C17.2998 34.168 17.57 33.6136 18.011 33.2074C18.149 33.0803 18.2518 32.9202 18.3098 32.7424C18.3677 32.5646 18.3788 32.375 18.3419 32.1917C18.3051 32.0084 18.2215 31.8376 18.0993 31.6956C17.977 31.5535 17.8201 31.445 17.6436 31.3803C16.8006 31.0719 16.1998 30.2888 16.1998 29.3399C16.1998 28.3909 16.8006 27.6078 17.6436 27.2994C17.8201 27.2347 17.977 27.1262 18.0993 26.9842C18.2215 26.8421 18.3051 26.6713 18.3419 26.488C18.3788 26.3047 18.3677 26.1151 18.3098 25.9373C18.2518 25.7595 18.149 25.5994 18.011 25.4723C17.57 25.0661 17.2998 24.5117 17.2998 23.8758C17.2998 22.8121 18.0392 21.945 19.0422 21.7393C19.1688 21.9539 19.3176 22.1822 19.5213 22.4159C20.1447 23.1308 21.2645 23.8758 22.7998 23.8758C22.9456 23.8779 23.0903 23.8511 23.2256 23.7971C23.3609 23.7431 23.484 23.6629 23.5878 23.5613C23.6916 23.4596 23.774 23.3384 23.8303 23.2048C23.8865 23.0712 23.9155 22.9278 23.9155 22.783C23.9155 22.6382 23.8865 22.4948 23.8303 22.3612C23.774 22.2276 23.6916 22.1064 23.5878 22.0047C23.484 21.9031 23.3609 21.8229 23.2256 21.7689C23.0903 21.7149 22.9456 21.6881 22.7998 21.6902C21.9284 21.6902 21.5046 21.3533 21.1842 20.9858C20.8638 20.6184 20.7588 20.29 20.7588 20.29C20.7534 20.275 20.7477 20.26 20.7416 20.2452C20.7395 20.2394 20.7394 20.2339 20.7373 20.2281C20.6483 19.9799 20.5998 19.7427 20.5998 19.5046C20.5998 18.2843 21.5715 17.3189 22.7998 17.3189C23.084 17.3189 23.3557 17.3763 23.6184 17.4812C23.7626 17.5386 23.9175 17.5651 24.0728 17.5588C24.2281 17.5525 24.3802 17.5136 24.5193 17.4446C24.6583 17.3756 24.7811 17.2782 24.8795 17.1587C24.9779 17.0391 25.0496 16.9003 25.0901 16.7512C25.344 15.8184 26.1762 15.1333 27.1998 15.1333ZM33.7784 15.1333C34.802 15.1333 35.6343 15.8184 35.8881 16.7512C35.9286 16.9003 36.0004 17.0391 36.0987 17.1587C36.1971 17.2782 36.3199 17.3756 36.4589 17.4446C36.598 17.5136 36.7501 17.5525 36.9054 17.5588C37.0607 17.5651 37.2156 17.5386 37.3598 17.4812C37.6225 17.3763 37.8942 17.3189 38.1784 17.3189C39.4067 17.3189 40.3784 18.2843 40.3784 19.5046C40.3784 19.7385 40.3292 19.9719 40.243 20.2153C40.2394 20.2255 40.2381 20.235 40.2344 20.2452C40.2219 20.2795 40.2112 20.3144 40.2022 20.3498C40.1983 20.3647 40.1947 20.3796 40.1915 20.3946C40.1915 20.3946 40.132 20.6776 39.8584 21.0136C39.5849 21.3496 39.2003 21.6902 38.1999 21.6902C38.0541 21.6881 37.9094 21.7149 37.7741 21.7689C37.6388 21.8229 37.5157 21.9031 37.4119 22.0047C37.3081 22.1064 37.2257 22.2276 37.1694 22.3612C37.1132 22.4948 37.0842 22.6382 37.0842 22.783C37.0842 22.9278 37.1132 23.0712 37.1694 23.2048C37.2257 23.3384 37.3081 23.4596 37.4119 23.5613C37.5157 23.6629 37.6388 23.7431 37.7741 23.7971C37.9094 23.8511 38.0541 23.8779 38.1999 23.8758C39.8119 23.8758 40.9608 23.1346 41.5686 22.3881C41.7449 22.1717 41.8763 21.9566 41.9854 21.7521C42.9626 21.9763 43.6784 22.8301 43.6784 23.8758C43.6784 24.5117 43.4083 25.0661 42.9672 25.4723C42.8293 25.5994 42.7264 25.7595 42.6684 25.9373C42.6105 26.1151 42.5994 26.3047 42.6363 26.488C42.6731 26.6713 42.7567 26.8421 42.8789 26.9842C43.0012 27.1262 43.1581 27.2347 43.3346 27.2994C44.1776 27.6078 44.7784 28.3909 44.7784 29.3399C44.7784 30.0901 44.3961 30.7254 43.8223 31.1157C43.481 30.9034 43.0332 30.6917 42.4538 30.565C42.1799 30.5051 41.8788 30.4764 41.5622 30.486C40.6121 30.515 39.5146 30.8923 38.535 31.8328C38.4292 31.9321 38.3443 32.0513 38.2852 32.1835C38.2261 32.3156 38.1939 32.4581 38.1907 32.6027C38.1874 32.7473 38.213 32.8911 38.2661 33.0257C38.3192 33.1604 38.3986 33.2832 38.4998 33.3872C38.601 33.4911 38.722 33.5741 38.8557 33.6312C38.9894 33.6884 39.1332 33.7186 39.2788 33.7201C39.4243 33.7217 39.5687 33.6945 39.7037 33.6402C39.8386 33.5859 39.9613 33.5055 40.0647 33.4038C40.9278 32.575 41.4801 32.5898 41.9811 32.6994C42.4821 32.809 42.9534 33.1956 42.95 33.1924C42.9557 33.1975 42.9615 33.2025 42.9672 33.2074C42.968 33.2081 42.9687 33.2088 42.9694 33.2095C43.4091 33.6156 43.6784 34.1691 43.6784 34.8039C43.6784 36.0242 42.7067 36.9895 41.4784 36.9895C41.5761 36.9895 41.5344 36.9827 41.3366 36.9703C41.1543 36.9591 40.9721 36.9931 40.8064 37.0692C40.6407 37.1454 40.4967 37.2613 40.3873 37.4066C40.278 37.5519 40.2067 37.7219 40.1801 37.9014C40.1534 38.0808 40.172 38.264 40.2344 38.4345C40.328 38.691 40.3784 38.933 40.3784 39.1752C40.3784 40.3955 39.4067 41.3608 38.1784 41.3608C37.8942 41.3608 37.6225 41.3034 37.3598 41.1986C37.2156 41.1411 37.0607 41.1146 36.9054 41.1209C36.7501 41.1272 36.598 41.1662 36.4589 41.2351C36.3199 41.3041 36.1971 41.4015 36.0987 41.5211C36.0004 41.6406 35.9286 41.7795 35.8881 41.9285C35.6343 42.8613 34.802 43.5464 33.7784 43.5464C32.604 43.5464 31.6793 42.6559 31.5998 41.508V34.8039C31.5998 33.5836 32.5715 32.6183 33.7998 32.6183C33.9456 32.6203 34.0903 32.5936 34.2256 32.5396C34.3609 32.4856 34.484 32.4054 34.5878 32.3037C34.6916 32.2021 34.774 32.0809 34.8303 31.9473C34.8865 31.8137 34.9155 31.6703 34.9155 31.5255C34.9155 31.3807 34.8865 31.2373 34.8303 31.1037C34.774 30.9701 34.6916 30.8489 34.5878 30.7472C34.484 30.6455 34.3609 30.5654 34.2256 30.5114C34.0903 30.4574 33.9456 30.4306 33.7998 30.4327C32.9961 30.4327 32.2506 30.6661 31.5998 31.0452V17.1695C31.6793 16.0231 32.604 15.1333 33.7784 15.1333ZM7.39985 28.2471C7.25408 28.245 7.10936 28.2718 6.9741 28.3258C6.83883 28.3798 6.71572 28.4599 6.61191 28.5616C6.50811 28.6633 6.42568 28.7844 6.36942 28.9181C6.31315 29.0517 6.28418 29.195 6.28418 29.3399C6.28418 29.4847 6.31315 29.6281 6.36942 29.7617C6.42568 29.8953 6.50811 30.0164 6.61191 30.1181C6.71572 30.2198 6.83883 30.3 6.9741 30.354C7.10936 30.408 7.25408 30.4347 7.39985 30.4327H10.6998C10.8456 30.4347 10.9903 30.408 11.1256 30.354C11.2609 30.3 11.384 30.2198 11.4878 30.1181C11.5916 30.0164 11.674 29.8953 11.7303 29.7617C11.7865 29.6281 11.8155 29.4847 11.8155 29.3399C11.8155 29.195 11.7865 29.0517 11.7303 28.9181C11.674 28.7844 11.5916 28.6633 11.4878 28.5616C11.384 28.4599 11.2609 28.3798 11.1256 28.3258C10.9903 28.2718 10.8456 28.245 10.6998 28.2471H7.39985ZM50.2999 28.2471C50.1541 28.245 50.0094 28.2718 49.8741 28.3258C49.7388 28.3798 49.6157 28.4599 49.5119 28.5616C49.4081 28.6633 49.3257 28.7844 49.2694 28.9181C49.2132 29.0517 49.1842 29.195 49.1842 29.3399C49.1842 29.4847 49.2132 29.6281 49.2694 29.7617C49.3257 29.8953 49.4081 30.0164 49.5119 30.1181C49.6157 30.2198 49.7388 30.3 49.8741 30.354C50.0094 30.408 50.1541 30.4347 50.2999 30.4327H53.5999C53.7456 30.4347 53.8903 30.408 54.0256 30.354C54.1609 30.3 54.284 30.2198 54.3878 30.1181C54.4916 30.0164 54.574 29.8953 54.6303 29.7617C54.6865 29.6281 54.7155 29.4847 54.7155 29.3399C54.7155 29.195 54.6865 29.0517 54.6303 28.9181C54.574 28.7844 54.4916 28.6633 54.3878 28.5616C54.284 28.4599 54.1609 28.3798 54.0256 28.3258C53.8903 28.2718 53.7456 28.245 53.5999 28.2471H50.2999ZM15.0784 43.5357C14.7926 43.5442 14.5213 43.6628 14.3221 43.8666L12.1221 46.0522C12.0165 46.1529 11.9323 46.2735 11.8742 46.4069C11.8161 46.5404 11.7855 46.684 11.784 46.8294C11.7825 46.9748 11.8102 47.119 11.8655 47.2537C11.9208 47.3883 12.0026 47.5106 12.1061 47.6134C12.2096 47.7162 12.3327 47.7974 12.4682 47.8524C12.6037 47.9073 12.7489 47.9349 12.8952 47.9334C13.0416 47.9319 13.1861 47.9015 13.3205 47.8438C13.4548 47.7861 13.5762 47.7024 13.6776 47.5975L15.8776 45.4119C16.0365 45.2584 16.1451 45.0607 16.1891 44.8449C16.233 44.629 16.2103 44.405 16.1239 44.2022C16.0375 43.9994 15.8915 43.8273 15.7049 43.7083C15.5183 43.5894 15.2999 43.5292 15.0784 43.5357V43.5357ZM45.8891 43.5357C45.6703 43.5358 45.4564 43.6007 45.2749 43.7221C45.0934 43.8435 44.9525 44.016 44.8701 44.2174C44.7878 44.4188 44.7678 44.64 44.8127 44.8528C44.8576 45.0656 44.9653 45.2602 45.1221 45.4119L47.3221 47.5975C47.4235 47.7024 47.5449 47.7861 47.6792 47.8438C47.8136 47.9015 47.9581 47.9319 48.1045 47.9334C48.2508 47.9349 48.396 47.9074 48.5315 47.8524C48.667 47.7974 48.7901 47.7162 48.8936 47.6134C48.9971 47.5106 49.0789 47.3883 49.1342 47.2537C49.1895 47.119 49.2172 46.9748 49.2157 46.8294C49.2143 46.684 49.1836 46.5404 49.1255 46.4069C49.0674 46.2735 48.9832 46.1529 48.8776 46.0522L46.6776 43.8666C46.5751 43.7619 46.4525 43.6787 46.3171 43.6218C46.1816 43.565 46.0361 43.5357 45.8891 43.5357ZM30.4827 48.9955C30.1913 49 29.9136 49.1192 29.7106 49.3269C29.5076 49.5346 29.3959 49.8138 29.3998 50.1033V52.2889C29.3978 52.4337 29.4247 52.5775 29.4791 52.7118C29.5334 52.8462 29.6141 52.9685 29.7165 53.0717C29.8188 53.1748 29.9408 53.2567 30.0753 53.3126C30.2097 53.3685 30.3541 53.3973 30.4998 53.3973C30.6456 53.3973 30.79 53.3685 30.9244 53.3126C31.0589 53.2567 31.1809 53.1748 31.2832 53.0717C31.3856 52.9685 31.4663 52.8462 31.5206 52.7118C31.575 52.5775 31.6019 52.4337 31.5998 52.2889V50.1033C31.6019 49.9571 31.5743 49.8119 31.5189 49.6765C31.4634 49.541 31.3812 49.418 31.277 49.3147C31.1728 49.2114 31.0488 49.13 30.9124 49.0751C30.776 49.0203 30.6298 48.9932 30.4827 48.9955V48.9955Z" fill="url(#paint0_linear)"/>
</g>
<defs>
<filter id="filter0_d" x="0" y="0" width="60" height="59.6732" filterUnits="userSpaceOnUse" color-interpolation-filters="sRGB">
<feFlood flood-opacity="0" result="BackgroundImageFix"/>
<feColorMatrix in="SourceAlpha" type="matrix" values="0 0 0 0 0 0 0 0 0 0 0 0 0 0 0 0 0 0 127 0" result="hardAlpha"/>
<feOffset/>
<feGaussianBlur stdDeviation="2.5"/>
<feColorMatrix type="matrix" values="0 0 0 0 0.196078 0 0 0 0 0.207843 0 0 0 0 0.321569 0 0 0 1 0"/>
<feBlend mode="normal" in2="BackgroundImageFix" result="effect1_dropShadow"/>
<feBlend mode="normal" in="SourceGraphic" in2="effect1_dropShadow" result="shape"/>
</filter>
<linearGradient id="paint0_linear" x1="30.4999" y1="5.28296" x2="30.4999" y2="53.3973" gradientUnits="userSpaceOnUse">
<stop stop-color="#245739"/>
<stop offset="1" stop-color="#1B182B" stop-opacity="0.7"/>
</linearGradient>
<clipPath id="clip0">
<rect width="50" height="49.6732" fill="white" transform="translate(5 5)"/>
</clipPath>
</defs>
</svg>
