<svg viewBox="0 0 50 60" fill="none" xmlns="http://www.w3.org/2000/svg">
<g filter="url(#filter0_d)">
<path d="M7.37402 14.3547C7.37402 9.18825 11.5838 5 16.7768 5H32.9107C38.1037 5 42.3134 9.18825 42.3134 14.3547C42.3134 17.6262 40.6255 20.5055 38.0688 22.1774C40.6255 23.8495 42.3134 26.7287 42.3134 30.0002C42.3134 35.1667 38.1037 39.355 32.9107 39.355H32.7065C30.272 39.355 28.0536 38.4345 26.3837 36.9242V45.5437C26.3837 50.779 22.0639 55 16.8274 55C11.6474 55 7.37402 50.8245 7.37402 45.6452C7.37402 42.3739 9.06178 39.4948 11.6183 37.8228C9.06178 36.1507 7.37402 33.2715 7.37402 30.0002C7.37402 26.7287 9.06193 23.8495 11.6186 22.1774C9.06193 20.5055 7.37402 17.6262 7.37402 14.3547ZM23.3037 23.7097H16.7768C13.2848 23.7097 10.454 26.5261 10.454 30.0002C10.454 33.4609 13.2629 36.2689 16.7363 36.2906C16.7498 36.2905 16.7632 36.2905 16.7768 36.2905H23.3037V23.7097ZM26.3837 30.0002C26.3837 33.4743 29.2145 36.2907 32.7065 36.2907H32.9107C36.4027 36.2907 39.2334 33.4743 39.2334 30.0002C39.2334 26.5261 36.4027 23.7097 32.9107 23.7097H32.7065C29.2145 23.7097 26.3837 26.5261 26.3837 30.0002ZM16.7768 39.355C16.7632 39.355 16.7498 39.3549 16.7363 39.3549C13.2629 39.3765 10.454 42.1845 10.454 45.6452C10.454 49.1066 13.3226 51.9357 16.8274 51.9357C20.3888 51.9357 23.3037 49.0611 23.3037 45.5437V39.355H16.7768ZM16.7768 8.06424C13.2848 8.06424 10.454 10.8806 10.454 14.3547C10.454 17.8289 13.2848 20.6452 16.7768 20.6452H23.3037V8.06424H16.7768ZM26.3837 20.6452H32.9107C36.4027 20.6452 39.2334 17.8289 39.2334 14.3547C39.2334 10.8806 36.4027 8.06424 32.9107 8.06424H26.3837V20.6452Z" fill="url(#paint0_linear)"/>
</g>
<defs>
<filter id="filter0_d" x="-5" y="0" width="60" height="59.6732" filterUnits="userSpaceOnUse" color-interpolation-filters="sRGB">
<feFlood flood-opacity="0" result="BackgroundImageFix"/>
<feColorMatrix in="SourceAlpha" type="matrix" values="0 0 0 0 0 0 0 0 0 0 0 0 0 0 0 0 0 0 127 0" result="hardAlpha"/>
<feOffset/>
<feGaussianBlur stdDeviation="2.5"/>
<feColorMatrix type="matrix" values="0 0 0 0 0.196078 0 0 0 0 0.207843 0 0 0 0 0.321569 0 0 0 1 0"/>
<feBlend mode="normal" in2="BackgroundImageFix" result="effect1_dropShadow"/>
<feBlend mode="normal" in="SourceGraphic" in2="effect1_dropShadow" result="shape"/>
</filter>
<linearGradient id="paint0_linear" x1="24.8437" y1="5" x2="24.8437" y2="55" gradientUnits="userSpaceOnUse">
<stop stop-color="#245739"/>
<stop offset="1" stop-color="#1B182B" stop-opacity="0.7"/>
</linearGradient>
</defs>
</svg>
