<svg viewBox="0 0 60 60" fill="none" xmlns="http://www.w3.org/2000/svg">
<g filter="url(#filter0_d)">
<path d="M45.8398 22.1915C45.3125 22.0169 44.7852 21.8519 44.2578 21.6967C44.3457 21.3377 44.4238 20.9788 44.502 20.6198C45.7031 14.8375 44.9121 10.1904 42.2461 8.6575C39.6777 7.19253 35.4883 8.71571 31.25 12.383C30.8301 12.742 30.4199 13.1203 30.0293 13.4987C29.7656 13.2465 29.4922 12.9942 29.2188 12.7517C24.7754 8.83213 20.3223 7.18283 17.6563 8.72541C15.0977 10.2001 14.3359 14.5756 15.4102 20.0474C15.5176 20.5907 15.6348 21.1243 15.7715 21.6676C15.1465 21.8422 14.5312 22.0363 13.9551 22.24C8.74023 24.0348 5 26.8678 5 29.7977C5 32.8247 8.98438 35.8613 14.4043 37.7047C14.8438 37.8502 15.2832 37.9957 15.7324 38.1219C15.5859 38.704 15.459 39.2764 15.3418 39.8682C14.3164 45.2527 15.1172 49.5215 17.6758 50.9864C20.3125 52.4999 24.7461 50.9476 29.0625 47.193C29.4043 46.8923 29.7461 46.5818 30.0879 46.252C30.5176 46.6691 30.9668 47.0669 31.416 47.455C35.5957 51.0252 39.7266 52.4708 42.2754 51.0058C44.9121 49.4924 45.7715 44.9034 44.6582 39.3152C44.5703 38.8883 44.4727 38.4517 44.3652 38.0054C44.6777 37.9181 44.9805 37.8211 45.2832 37.7241C50.918 35.871 55 32.8732 55 29.7977C55 26.8581 51.1523 24.0057 45.8398 22.1915V22.1915ZM32.627 13.9547C36.2598 10.8113 39.6484 9.57917 41.1914 10.462C42.8418 11.4031 43.4766 15.2062 42.4414 20.2026C42.373 20.5325 42.3047 20.8527 42.2168 21.1728C40.0488 20.6877 37.8516 20.3385 35.6445 20.1444C34.375 18.3399 32.9883 16.613 31.4844 14.9928C31.8652 14.6338 32.2363 14.2942 32.627 13.9547V13.9547ZM21.3281 34.8329C21.8262 35.677 22.334 36.5211 22.8711 37.3457C21.3477 37.1808 19.834 36.9382 18.3398 36.6181C18.7695 35.221 19.3066 33.7755 19.9316 32.3008C20.3809 33.1545 20.8398 33.9986 21.3281 34.8329V34.8329ZM18.3691 23.1617C19.7754 22.8512 21.2695 22.599 22.8223 22.4049C22.3047 23.2102 21.7969 24.0348 21.3184 24.8692C20.8398 25.6939 20.3711 26.5379 19.9316 27.3917C19.3164 25.9461 18.7988 24.5296 18.3691 23.1617ZM21.0449 29.8462C21.6895 28.5074 22.3926 27.1976 23.1348 25.9073C23.877 24.617 24.6777 23.3654 25.5176 22.1333C26.9824 22.0266 28.4766 21.9684 30 21.9684C31.5234 21.9684 33.0273 22.0266 34.4824 22.1333C35.3125 23.3557 36.1035 24.6073 36.8555 25.8879C37.6074 27.1685 38.3105 28.4783 38.9746 29.8074C38.3203 31.1463 37.6172 32.4657 36.8652 33.7657C36.123 35.0561 35.332 36.3076 34.502 37.5494C33.0469 37.6562 31.5332 37.7047 30 37.7047C28.4668 37.7047 26.9824 37.6562 25.5469 37.5689C24.6973 36.3367 23.8965 35.0755 23.1445 33.7852C22.3926 32.4948 21.6992 31.1851 21.0449 29.8462ZM38.6816 34.8135C39.1797 33.9598 39.6484 33.0963 40.1074 32.2232C40.7324 33.6299 41.2793 35.0561 41.7578 36.5211C40.2441 36.8606 38.7109 37.1226 37.168 37.2972C37.6953 36.4823 38.1934 35.6479 38.6816 34.8135ZM40.0879 27.3917C39.6289 26.5379 39.1602 25.6842 38.6719 24.8498C38.1934 24.0251 37.6953 23.2102 37.1777 22.4049C38.75 22.599 40.2539 22.8609 41.6602 23.1811C41.2109 24.617 40.6836 26.014 40.0879 27.3917V27.3917ZM30.0195 16.4771C31.0449 17.5832 32.0117 18.7474 32.9102 19.9504C30.9766 19.8631 29.0332 19.8631 27.0996 19.9504C28.0566 18.6989 29.043 17.5346 30.0195 16.4771ZM18.6914 10.5299C20.332 9.57917 23.9746 10.9374 27.8125 14.3136C28.0566 14.5271 28.3008 14.7599 28.5547 14.9928C27.041 16.613 25.6445 18.3399 24.3652 20.1444C22.1582 20.3385 19.9707 20.678 17.8027 21.1534C17.6758 20.6586 17.5684 20.1541 17.4609 19.6496C16.543 14.954 17.1484 11.4128 18.6914 10.5299V10.5299ZM16.2988 36.1039C15.8887 35.9875 15.4883 35.8613 15.0879 35.7255C13.0078 35.0755 10.6445 34.0471 8.93555 32.6986C7.94922 32.0194 7.28516 30.9716 7.09961 29.7977C7.09961 28.0223 10.1855 25.7521 14.6387 24.2095C15.1953 24.0154 15.7617 23.8408 16.3281 23.6759C16.9922 25.7812 17.793 27.8477 18.7207 29.8462C17.7832 31.8739 16.9727 33.9695 16.2988 36.1039V36.1039ZM27.6855 45.6116C26.0742 47.0766 24.209 48.2408 22.1777 49.0364C21.0937 49.5506 19.8438 49.5991 18.7305 49.1625C17.1777 48.2699 16.5332 44.8452 17.4121 40.2368C17.5195 39.6935 17.6367 39.1502 17.7734 38.6166C19.9609 39.0823 22.168 39.4025 24.4043 39.5674C25.6934 41.3817 27.1094 43.1183 28.623 44.7482C28.3105 45.0489 27.998 45.34 27.6855 45.6116ZM30.0781 43.2541C29.082 42.1869 28.0859 41.0033 27.1191 39.7324C28.0566 39.7712 29.0234 39.7906 30 39.7906C31.0059 39.7906 31.9922 39.7712 32.9687 39.7227C32.0703 40.9548 31.1035 42.1287 30.0781 43.2541V43.2541ZM42.8418 46.1646C42.7539 47.3483 42.168 48.4543 41.2305 49.2013C39.6777 50.0939 36.3672 48.9297 32.793 45.8833C32.3828 45.534 31.9727 45.1557 31.5527 44.7676C33.0469 43.128 34.4238 41.3914 35.6738 39.5674C37.9102 39.3831 40.1367 39.0435 42.334 38.5487C42.4316 38.9465 42.5195 39.3443 42.5977 39.7324C43.0762 41.8279 43.1543 44.0108 42.8418 46.1646V46.1646ZM44.6191 35.7352C44.3457 35.8225 44.0723 35.9098 43.7891 35.9875C43.1055 33.8725 42.2656 31.806 41.2988 29.7977C42.2363 27.8185 43.0273 25.7812 43.6914 23.6953C44.1992 23.8408 44.6875 23.996 45.1563 24.1513C49.707 25.7036 52.9004 28.0126 52.9004 29.7783C52.9004 31.6799 49.4922 34.1344 44.6191 35.7352ZM30 34.2799C32.4707 34.2799 34.4727 32.2911 34.4727 29.8365C34.4727 27.382 32.4707 25.3931 30 25.3931C27.5293 25.3931 25.5273 27.382 25.5273 29.8365C25.5273 32.2911 27.5293 34.2799 30 34.2799Z" fill="url(#paint0_linear)"/>
</g>
<defs>
<filter id="filter0_d" x="0" y="0" width="60" height="59.6732" filterUnits="userSpaceOnUse" color-interpolation-filters="sRGB">
<feFlood flood-opacity="0" result="BackgroundImageFix"/>
<feColorMatrix in="SourceAlpha" type="matrix" values="0 0 0 0 0 0 0 0 0 0 0 0 0 0 0 0 0 0 127 0" result="hardAlpha"/>
<feOffset/>
<feGaussianBlur stdDeviation="2.5"/>
<feColorMatrix type="matrix" values="0 0 0 0 0.196078 0 0 0 0 0.207843 0 0 0 0 0.321569 0 0 0 1 0"/>
<feBlend mode="normal" in2="BackgroundImageFix" result="effect1_dropShadow"/>
<feBlend mode="normal" in="SourceGraphic" in2="effect1_dropShadow" result="shape"/>
</filter>
<linearGradient id="paint0_linear" x1="30" y1="8.10571" x2="30" y2="51.5721" gradientUnits="userSpaceOnUse">
<stop stop-color="#245739"/>
<stop offset="1" stop-color="#1B182B" stop-opacity="0.7"/>
</linearGradient>
</defs>
</svg>
