<svg width="60" height="51" viewBox="0 0 60 51" fill="none" xmlns="http://www.w3.org/2000/svg">
<g filter="url(#filter0_d)">
<g clip-path="url(#clip0)">
<path d="M52.5 15.9019H37.5C36.837 15.9019 36.2011 16.1636 35.7322 16.6294C35.2634 17.0951 35 17.7269 35 18.3856V43.2222C35 43.8809 35.2634 44.5126 35.7322 44.9784C36.2011 45.4442 36.837 45.7058 37.5 45.7058H52.5C53.163 45.7058 53.7989 45.4442 54.2678 44.9784C54.7366 44.5126 55 43.8809 55 43.2222V18.3856C55 17.7269 54.7366 17.0951 54.2678 16.6294C53.7989 16.1636 53.163 15.9019 52.5 15.9019V15.9019ZM52.5 43.2222H37.5V18.3856H52.5V43.2222ZM12.5 8.45095H42.5V13.4183H45V8.45095C45 7.79224 44.7366 7.16051 44.2678 6.69473C43.7989 6.22896 43.163 5.96729 42.5 5.96729H12.5C11.837 5.96729 11.2011 6.22896 10.7322 6.69473C10.2634 7.16051 10 7.79224 10 8.45095V28.3202H6.25C5.91848 28.3202 5.60054 28.4511 5.36612 28.6839C5.1317 28.9168 5 29.2327 5 29.5621V30.8039C5.00288 32.1192 5.52963 33.3799 6.46517 34.3107C7.4007 35.2414 8.66899 35.7665 9.99297 35.7712H32.5V33.2875H9.99297C9.33115 33.2857 8.69707 33.0232 8.22975 32.5576C7.76242 32.0921 7.5 31.4614 7.5 30.8039H32.5V28.3202H12.5V8.45095Z" fill="url(#paint0_linear)"/>
</g>
</g>
<defs>
<filter id="filter0_d" x="0" y="-4" width="60" height="59.6732" filterUnits="userSpaceOnUse" color-interpolation-filters="sRGB">
<feFlood flood-opacity="0" result="BackgroundImageFix"/>
<feColorMatrix in="SourceAlpha" type="matrix" values="0 0 0 0 0 0 0 0 0 0 0 0 0 0 0 0 0 0 127 0" result="hardAlpha"/>
<feOffset/>
<feGaussianBlur stdDeviation="2.5"/>
<feColorMatrix type="matrix" values="0 0 0 0 0.196078 0 0 0 0 0.207843 0 0 0 0 0.321569 0 0 0 1 0"/>
<feBlend mode="normal" in2="BackgroundImageFix" result="effect1_dropShadow"/>
<feBlend mode="normal" in="SourceGraphic" in2="effect1_dropShadow" result="shape"/>
</filter>
<linearGradient id="paint0_linear" x1="30" y1="5.96729" x2="30" y2="45.7058" gradientUnits="userSpaceOnUse">
<stop stop-color="#245739"/>
<stop offset="1" stop-color="#1B182B" stop-opacity="0.7"/>
</linearGradient>
<clipPath id="clip0">
<rect width="50" height="39.7386" fill="white" transform="translate(5 5.96729)"/>
</clipPath>
</defs>
</svg>
