<svg width="60" height="51" viewBox="0 0 60 51" fill="none" xmlns="http://www.w3.org/2000/svg">
<g filter="url(#filter0_d)">
<path d="M28.581 35.377C28.5575 35.4235 28.5341 35.4608 28.581 35.377V35.377ZM48.0443 28.6245C46.4729 28.624 44.9226 28.9825 43.513 29.6723C43.0521 28.7487 42.5755 27.9415 42.4974 27.3361C42.4036 26.6298 42.3021 26.2107 42.4114 25.3725C42.5208 24.5342 43.013 23.3467 43.0052 23.2614C42.9974 23.176 42.8958 22.7491 41.888 22.7413C40.8802 22.7336 40.013 22.9354 39.9122 23.1993C39.7342 23.6815 39.5958 24.1773 39.4982 24.6817C39.3185 25.5898 37.4833 28.8341 36.4443 30.5261C36.1005 29.8663 35.8114 29.2842 35.7489 28.8185C35.6552 28.1122 35.5536 27.6931 35.663 26.8549C35.7724 26.0167 36.2646 24.8292 36.2568 24.7438C36.2489 24.6584 36.1474 24.2315 35.1403 24.2238C34.1333 24.216 33.2653 24.4178 33.1638 24.6817C33.0622 24.9456 32.9528 25.5665 32.7497 26.1641C32.5466 26.7618 30.1021 32.1637 29.4622 33.5685C29.1341 34.2826 28.8528 34.8569 28.6497 35.245C28.6185 35.3071 28.595 35.3459 28.5794 35.377C28.6028 35.3381 28.6185 35.2993 28.6185 35.3149C28.4466 35.6486 28.345 35.8349 28.345 35.8349V35.8426C28.2122 36.091 28.0638 36.3161 27.9935 36.3161C27.9466 36.3161 27.845 35.6641 28.0169 34.7716C28.3841 32.8933 29.2513 29.975 29.2435 29.8741C29.2357 29.8198 29.4075 29.3153 28.6732 29.0436C27.9622 28.7875 27.7044 29.2144 27.6419 29.2144C27.5794 29.2144 27.5325 29.3696 27.5325 29.3696C27.5325 29.3696 28.3216 26.0788 26.0177 26.0788C24.5802 26.0788 22.5802 27.6466 21.5974 29.0669C20.9802 29.4006 19.6443 30.1225 18.238 30.8908C17.6989 31.1858 17.1443 31.4885 16.6208 31.7756C16.5818 31.7368 16.5505 31.698 16.5114 31.6592C13.7153 28.6944 8.55285 26.5988 8.7716 22.6172C8.84972 21.1658 9.35753 17.3549 18.6989 12.7291C26.3552 8.9415 32.4763 9.98153 33.5302 12.2944C35.0458 15.593 30.2575 21.7323 22.3068 22.6172C19.2763 22.9509 17.6833 21.7867 17.2849 21.352C16.8708 20.8941 16.8083 20.8708 16.6521 20.9562C16.3943 21.0959 16.5583 21.4995 16.6521 21.7401C16.8864 22.3533 17.863 23.4399 19.5263 23.9832C20.9872 24.4566 24.5403 24.7205 28.8364 23.0673C33.663 21.2201 37.42 16.0743 36.3185 11.7667C35.1966 7.38921 27.8903 5.95334 20.9818 8.39043C16.8653 9.84182 12.4138 12.1237 9.21144 15.0963C5.40753 18.6355 4.79894 21.7168 5.04894 23.0052C5.93878 27.5767 12.281 30.5571 14.8193 32.7614C14.6943 32.8312 14.5771 32.8933 14.4677 32.9554C13.195 33.5841 8.35988 36.0988 7.14972 38.7532C5.78253 41.7646 7.37628 43.9223 8.42238 44.2172C11.6872 45.1176 15.0302 43.4954 16.8263 40.8332C18.6224 38.1711 18.4044 34.6939 17.5763 33.1106C17.5685 33.0873 17.5528 33.0718 17.545 33.0485C17.8732 32.8545 18.2091 32.6605 18.545 32.4664C19.1927 32.0861 19.8255 31.7368 20.3802 31.4341C20.0677 32.2724 19.8411 33.2814 19.7239 34.7405C19.5833 36.448 20.2943 38.66 21.2161 39.5293C21.6224 39.9096 22.1138 39.9174 22.4185 39.9174C23.4966 39.9174 23.981 39.0326 24.5193 37.977C25.1833 36.6886 25.7693 35.1907 25.7693 35.1907C25.7693 35.1907 25.0349 39.2422 27.0427 39.2422C27.7763 39.2422 28.5107 38.303 28.8396 37.8218V37.8296C28.8396 37.8296 28.8552 37.7985 28.8943 37.7364C28.9724 37.62 29.0114 37.5502 29.0114 37.5502V37.5269C29.3083 37.0224 29.9568 35.8659 30.9325 33.9566C32.1982 31.4885 33.4083 28.4072 33.4083 28.4072C33.5253 29.0845 33.6871 29.7535 33.8927 30.4096C34.1114 31.147 34.5724 31.9542 34.9396 32.7381C34.6427 33.1417 34.463 33.3745 34.463 33.3745C34.4636 33.3805 34.4664 33.386 34.4708 33.39C34.2364 33.7005 33.9708 34.0342 33.6974 34.3602C32.6982 35.5399 31.5099 36.8904 31.3536 37.2785C31.1661 37.7364 31.213 38.0779 31.5724 38.3418C31.838 38.5436 32.3068 38.5747 32.7982 38.5359C33.6966 38.4738 34.3294 38.2564 34.6341 38.1167C35.1958 37.9166 35.7267 37.6397 36.2114 37.294C37.188 36.58 37.7818 35.5555 37.7271 34.205C37.6958 33.4599 37.4536 32.7148 37.1568 32.0163C37.2427 31.8921 37.3364 31.7601 37.4224 31.6282C38.9685 29.3851 40.1638 26.9232 40.1638 26.9232C40.2807 27.6005 40.4425 28.2695 40.6482 28.9256C40.8357 29.5543 41.2021 30.2451 41.538 30.9203C40.0857 32.0923 39.1872 33.4506 38.8747 34.3431C38.2966 35.9963 38.7497 36.7414 39.6013 36.9122C39.9841 36.9898 40.531 36.8113 40.9372 36.6405C41.5406 36.4409 42.1094 36.1503 42.6239 35.779C43.6005 35.0649 44.545 34.0637 44.4825 32.7055C44.4591 32.0923 44.2872 31.4792 44.0607 30.8893C45.2872 30.377 46.8802 30.0976 48.9114 30.3305C53.2614 30.835 54.113 33.5359 53.9489 34.6614C53.7849 35.7868 52.8708 36.4154 52.5661 36.6017C52.2614 36.788 52.1677 36.8578 52.1911 36.9975C52.2302 37.1993 52.3708 37.1916 52.6286 37.145C52.988 37.0829 54.9091 36.2292 54.995 34.1413C55.12 31.5024 52.5661 28.5997 48.0419 28.623L48.0443 28.6245ZM14.5146 39.8553C13.0778 41.4154 11.0622 42.0052 10.1958 41.5085C9.26613 40.9714 9.63332 38.6756 11.406 37.0131C12.4841 36.0041 13.8739 35.0727 14.7958 34.4984C15.0068 34.3742 15.3114 34.1879 15.6864 33.9628C15.7489 33.924 15.7802 33.9085 15.7802 33.9085C15.8505 33.8619 15.9286 33.8231 16.0068 33.7765C16.6544 36.136 16.0302 38.2161 14.5146 39.8538V39.8553ZM25.0114 32.7614C24.5114 33.9799 23.4575 37.0845 22.8169 36.9215C22.27 36.7818 21.9341 34.4145 22.7075 32.0861C23.0982 30.9141 23.9263 29.5171 24.4185 28.9738C25.2068 28.0967 26.0739 27.8173 26.2771 28.1666C26.5505 28.6245 25.3239 32.0007 25.0114 32.7614ZM33.6833 36.8749C33.4724 36.9836 33.2771 37.0534 33.1833 36.9991C33.113 36.9603 33.2693 36.8128 33.2693 36.8128C33.2693 36.8128 34.3552 35.6564 34.7849 35.1286C35.0349 34.8181 35.3239 34.4533 35.6357 34.0497C35.6357 34.0886 35.6435 34.1274 35.6435 34.1739C35.6333 35.5632 34.2903 36.5024 33.681 36.8749H33.6833ZM40.3693 35.3614C40.213 35.2528 40.2364 34.888 40.7599 33.7548C40.963 33.3124 41.431 32.5673 42.2443 31.8533C42.3363 32.1236 42.3864 32.4062 42.3927 32.6915C42.3849 34.4378 41.1271 35.0898 40.37 35.3614H40.3693Z" fill="url(#paint0_linear)"/>
</g>
<defs>
<filter id="filter0_d" x="0" y="-4" width="60" height="59.6732" filterUnits="userSpaceOnUse" color-interpolation-filters="sRGB">
<feFlood flood-opacity="0" result="BackgroundImageFix"/>
<feColorMatrix in="SourceAlpha" type="matrix" values="0 0 0 0 0 0 0 0 0 0 0 0 0 0 0 0 0 0 127 0" result="hardAlpha"/>
<feOffset/>
<feGaussianBlur stdDeviation="2.5"/>
<feColorMatrix type="matrix" values="0 0 0 0 0.196078 0 0 0 0 0.207843 0 0 0 0 0.321569 0 0 0 1 0"/>
<feBlend mode="normal" in2="BackgroundImageFix" result="effect1_dropShadow"/>
<feBlend mode="normal" in="SourceGraphic" in2="effect1_dropShadow" result="shape"/>
</filter>
<linearGradient id="paint0_linear" x1="29.9997" y1="7.20947" x2="29.9997" y2="44.4674" gradientUnits="userSpaceOnUse">
<stop stop-color="#245739"/>
<stop offset="1" stop-color="#1B182B" stop-opacity="0.7"/>
</linearGradient>
</defs>
</svg>
