<svg viewBox="0 0 60 60" fill="none" xmlns="http://www.w3.org/2000/svg">
<g filter="url(#filter0_d)">
<g >
<path d="M48.0825 11.5645C43.5091 4.96731 34.5575 3.05955 27.6638 7.21502L16.0013 14.5806C12.8107 16.5691 10.6216 19.8041 9.97942 23.4814C9.4091 26.5379 9.90598 29.6984 11.3716 32.4475C10.37 33.9439 9.69504 35.6328 9.39348 37.4117C8.72629 41.1465 9.5966 44.9946 11.8107 48.0914C16.3919 54.6731 25.32 56.5886 32.2294 52.4813L43.8997 45.1079C47.0732 43.1194 49.2544 39.8845 49.8982 36.2071C50.4591 33.1584 49.9638 30.0057 48.4982 27.2737C51.5982 22.4383 51.4357 16.2214 48.0825 11.5645V11.5645ZM26.4997 48.731C22.7482 49.7011 18.7841 48.2373 16.5794 45.0691C15.2279 43.2095 14.7325 40.9136 15.1232 38.6333L15.3513 37.5343L15.5622 36.8544L16.1888 37.2673C17.5638 38.3027 19.1029 39.0462 20.7466 39.5476L21.17 39.6935L21.1216 40.1064C21.081 40.6808 21.2513 41.3265 21.5857 41.8202C22.27 42.7981 23.4575 43.2669 24.6044 42.9596C24.856 42.8788 25.1013 42.7981 25.3122 42.6677L36.9341 35.3021C37.52 34.9296 37.895 34.3723 38.0404 33.7095C38.17 33.0218 37.9997 32.3186 37.6247 31.7613C36.9325 30.8067 35.7529 30.3783 34.606 30.6623C34.3544 30.7508 34.0857 30.8486 33.8732 30.9774L29.4779 33.7498C25.32 36.2071 19.9482 35.0522 17.1888 31.0985C15.8466 29.2389 15.3169 26.9182 15.7232 24.6627C16.1294 22.4305 17.4732 20.4747 19.4185 19.2779L31.0154 11.9122C31.7482 11.459 32.5372 11.1283 33.3919 10.8769C37.1435 9.90669 41.0982 11.3705 43.3122 14.5232C44.8747 16.7057 45.3138 19.4952 44.4997 22.0502L44.2888 22.7379L43.6872 22.325C42.295 21.3145 40.7497 20.5461 39.106 20.0447L38.6904 19.9236L38.731 19.5107C38.7716 18.9037 38.6013 18.2658 38.2669 17.7721C37.5825 16.7942 36.395 16.3813 35.2482 16.6731C34.9966 16.7538 34.7513 16.8345 34.5404 16.9649L22.895 24.3942C22.3091 24.7823 21.9341 25.324 21.8122 26.0024C21.6904 26.6652 21.8529 27.3932 22.2279 27.9272C22.895 28.9051 24.1075 29.318 25.231 29.0262C25.4997 28.9455 25.7513 28.8648 25.956 28.7344L30.3997 25.9201C31.1247 25.4435 31.9372 25.0958 32.7685 24.8692C36.545 23.8913 40.4841 25.3628 42.6888 28.531C44.0404 30.3907 44.5607 32.6865 44.1857 34.942C43.795 37.1742 42.4685 39.1301 40.5404 40.3269L28.9185 47.6754C28.1622 48.1287 27.3482 48.4841 26.5013 48.7263L26.4997 48.731Z" fill="url(#paint0_linear)"/>
</g>
</g>
<defs>
<filter id="filter0_d" x="0" y="0" width="60" height="59.6732" filterUnits="userSpaceOnUse" color-interpolation-filters="sRGB">
<feFlood flood-opacity="0" result="BackgroundImageFix"/>
<feColorMatrix in="SourceAlpha" type="matrix" values="0 0 0 0 0 0 0 0 0 0 0 0 0 0 0 0 0 0 127 0" result="hardAlpha"/>
<feOffset/>
<feGaussianBlur stdDeviation="2.5"/>
<feColorMatrix type="matrix" values="0 0 0 0 0.196078 0 0 0 0 0.207843 0 0 0 0 0.321569 0 0 0 1 0"/>
<feBlend mode="normal" in2="BackgroundImageFix" result="effect1_dropShadow"/>
<feBlend mode="normal" in="SourceGraphic" in2="effect1_dropShadow" result="shape"/>
</filter>
<linearGradient id="paint0_linear" x1="29.9447" y1="5.02026" x2="29.9447" y2="54.6392" gradientUnits="userSpaceOnUse">
<stop stop-color="#245739"/>
<stop offset="1" stop-color="#1B182B" stop-opacity="0.7"/>
</linearGradient>
</defs>
</svg>
