<svg width="60" height="51" viewBox="0 0 60 51" fill="none" xmlns="http://www.w3.org/2000/svg">
<g filter="url(#filter0_d)">
<g clip-path="url(#clip0)">
<path d="M47.5 23.3529C44.0469 23.3529 41.25 26.1315 41.25 29.5621C41.25 32.9926 44.0469 35.7712 47.5 35.7712C50.9531 35.7712 53.75 32.9926 53.75 29.5621C53.75 26.1315 50.9531 23.3529 47.5 23.3529ZM47.5 33.2875C45.4297 33.2875 43.75 31.6188 43.75 29.5621C43.75 27.5053 45.4297 25.8366 47.5 25.8366C49.5703 25.8366 51.25 27.5053 51.25 29.5621C51.25 31.6188 49.5703 33.2875 47.5 33.2875ZM23.75 29.5621C23.75 32.9926 26.5469 35.7712 30 35.7712C33.4531 35.7712 36.25 32.9926 36.25 29.5621C36.25 26.1315 33.4531 23.3529 30 23.3529C26.5469 23.3529 23.75 26.1315 23.75 29.5621ZM33.75 29.5621C33.75 31.6188 32.0703 33.2875 30 33.2875C27.9297 33.2875 26.25 31.6188 26.25 29.5621C26.25 27.5053 27.9297 25.8366 30 25.8366C32.0703 25.8366 33.75 27.5053 33.75 29.5621ZM12.5 35.7712C15.9531 35.7712 18.75 32.9926 18.75 29.5621C18.75 26.1315 15.9531 23.3529 12.5 23.3529C9.04687 23.3529 6.25 26.1315 6.25 29.5621C6.25 32.9926 9.04687 35.7712 12.5 35.7712ZM12.5 25.8366C14.5703 25.8366 16.25 27.5053 16.25 29.5621C16.25 31.6188 14.5703 33.2875 12.5 33.2875C10.4297 33.2875 8.75 31.6188 8.75 29.5621C8.75 27.5053 10.4297 25.8366 12.5 25.8366ZM49.0625 38.2549H45.9375C42.6641 38.2549 40 41.0412 40 44.464C40 45.147 40.5625 45.7058 41.25 45.7058C41.9375 45.7058 42.5 45.147 42.5 44.464C42.5 42.4072 44.0469 40.7385 45.9375 40.7385H49.0625C50.9531 40.7385 52.5 42.4072 52.5 44.464C52.5 45.147 53.0625 45.7058 53.75 45.7058C54.4375 45.7058 55 45.147 55 44.464C55 41.0412 52.3359 38.2549 49.0625 38.2549ZM14.0625 38.2549H10.9375C7.66406 38.2549 5 41.0412 5 44.464C5 45.147 5.5625 45.7058 6.25 45.7058C6.9375 45.7058 7.5 45.147 7.5 44.464C7.5 42.4072 9.04687 40.7385 10.9375 40.7385H14.0625C15.9531 40.7385 17.5 42.4072 17.5 44.464C17.5 45.147 18.0625 45.7058 18.75 45.7058C19.4375 45.7058 20 45.147 20 44.464C20 41.0412 17.3359 38.2549 14.0625 38.2549ZM31.5625 38.2549H28.4375C25.1641 38.2549 22.5 41.0412 22.5 44.464C22.5 45.147 23.0625 45.7058 23.75 45.7058C24.4375 45.7058 25 45.147 25 44.464C25 42.4072 26.5469 40.7385 28.4375 40.7385H31.5625C33.4531 40.7385 35 42.4072 35 44.464C35 45.147 35.5625 45.7058 36.25 45.7058C36.9375 45.7058 37.5 45.147 37.5 44.464C37.5 41.0412 34.8359 38.2549 31.5625 38.2549ZM10 9.69278C10 9.00744 10.5617 8.45095 11.25 8.45095H48.75C49.4383 8.45095 50 9.00744 50 9.69278V21.2744C50.8992 21.5429 51.7477 21.9232 52.5 22.4471V9.69278C52.5 7.63832 50.818 5.96729 48.75 5.96729H11.25C9.18203 5.96729 7.5 7.63832 7.5 9.69278V22.4471C8.25234 21.9232 9.10078 21.5437 10 21.2744V9.69278Z" fill="url(#paint0_linear)"/>
</g>
</g>
<defs>
<filter id="filter0_d" x="0" y="-4" width="60" height="59.6732" filterUnits="userSpaceOnUse" color-interpolation-filters="sRGB">
<feFlood flood-opacity="0" result="BackgroundImageFix"/>
<feColorMatrix in="SourceAlpha" type="matrix" values="0 0 0 0 0 0 0 0 0 0 0 0 0 0 0 0 0 0 127 0" result="hardAlpha"/>
<feOffset/>
<feGaussianBlur stdDeviation="2.5"/>
<feColorMatrix type="matrix" values="0 0 0 0 0.196078 0 0 0 0 0.207843 0 0 0 0 0.321569 0 0 0 1 0"/>
<feBlend mode="normal" in2="BackgroundImageFix" result="effect1_dropShadow"/>
<feBlend mode="normal" in="SourceGraphic" in2="effect1_dropShadow" result="shape"/>
</filter>
<linearGradient id="paint0_linear" x1="30" y1="5.96729" x2="30" y2="45.7058" gradientUnits="userSpaceOnUse">
<stop stop-color="#245739"/>
<stop offset="1" stop-color="#1B182B" stop-opacity="0.7"/>
</linearGradient>
<clipPath id="clip0">
<rect width="50" height="39.7386" fill="white" transform="translate(5 5.96729)"/>
</clipPath>
</defs>
</svg>
