<svg width="60" height="60" viewBox="0 0 60 60" fill="none" xmlns="http://www.w3.org/2000/svg">
<g clip-path="url(#clip0)" filter="url(#filter0_d)">
<g clip-path="url(#clip1)">
<path d="M5 5V54.6732H55V5H5ZM34.0278 31.2164H27.5139V50.2026H23.3472V31.2164H16.9028V27.7117H34.0278V31.2164ZM41.5139 50.5338C39.3897 50.5747 37.2875 50.1011 35.3889 49.154L36.3056 45.7596C37.9861 46.6636 39.8667 47.1378 41.7778 47.1394C44.4167 47.1394 45.9444 45.9114 45.9444 44.0763C45.9444 42.2411 44.8056 41.3166 41.9306 40.337C38.1944 39.0261 35.8056 37.0392 35.8056 33.8105C35.8056 30.1264 38.9028 27.3529 43.8194 27.3529C45.6925 27.3001 47.5522 27.6829 49.25 28.4706L48.2639 31.7821C46.8646 31.0644 45.3108 30.695 43.7361 30.7059C41.1111 30.7059 40 32.0857 40 33.4655C40 35.1903 41.3056 36.0044 44.3194 37.1496C48.2639 38.6398 50.1528 40.5991 50.1528 43.8279C50.0972 47.4154 47.3472 50.5338 41.5139 50.5338Z" fill="url(#paint0_linear)"/>
</g>
</g>
<defs>
<filter id="filter0_d" x="0" y="0" width="60" height="59.6732" filterUnits="userSpaceOnUse" color-interpolation-filters="sRGB">
<feFlood flood-opacity="0" result="BackgroundImageFix"/>
<feColorMatrix in="SourceAlpha" type="matrix" values="0 0 0 0 0 0 0 0 0 0 0 0 0 0 0 0 0 0 127 0" result="hardAlpha"/>
<feOffset/>
<feGaussianBlur stdDeviation="2.5"/>
<feColorMatrix type="matrix" values="0 0 0 0 0.196078 0 0 0 0 0.207843 0 0 0 0 0.321569 0 0 0 1 0"/>
<feBlend mode="normal" in2="BackgroundImageFix" result="effect1_dropShadow"/>
<feBlend mode="normal" in="SourceGraphic" in2="effect1_dropShadow" result="shape"/>
</filter>
<linearGradient id="paint0_linear" x1="30" y1="5" x2="30" y2="54.6732" gradientUnits="userSpaceOnUse">
<stop stop-color="#245739"/>
<stop offset="1" stop-color="#1B182B" stop-opacity="0.7"/>
</linearGradient>
<clipPath id="clip0">
<rect width="50" height="49.6732" fill="white" transform="translate(5 5)"/>
</clipPath>
<clipPath id="clip1">
<path d="M5 10C5 7.23858 7.23858 5 10 5H50C52.7614 5 55 7.23858 55 10V49.6732C55 52.4346 52.7614 54.6732 50 54.6732H10C7.23858 54.6732 5 52.4346 5 49.6732V10Z" fill="white"/>
</clipPath>
</defs>
</svg>
