<svg viewBox="0 0 52 52" fill="none" xmlns="http://www.w3.org/2000/svg">
<g filter="url(#filter0_d)">
<g>
<path d="M9.68359 1.3186H10.7934V2.42118H11.821V1.3186H12.9309V4.70802H11.9033V3.60544H10.7934V4.70802H9.68359V1.3186ZM14.534 2.42118H13.5064V1.3186H16.6714V2.42118H15.6438V4.70802H14.534V2.42118ZM17.1236 1.3186H18.3156L19.0144 2.50286L19.7132 1.3186H20.9052V4.70802H19.7954V3.03373L19.0144 4.21798L18.2334 3.03373V4.70802H17.1236V1.3186V1.3186ZM21.604 1.3186H22.7139V3.60544H24.3169V4.70802H21.5218L21.604 1.3186Z" fill="url(#paint0_linear)"/>
<path d="M7.99805 6.25977L9.68335 24.5136L17 26.5554L24.3989 24.5136L26.0842 6.25977C26.0431 6.25977 7.99805 6.25977 7.99805 6.25977ZM22.5492 10.6292L22.467 11.7318L22.3848 12.181H16.9589H13.7938L14.0405 14.4679H17H22.2615L22.1792 15.0804L21.6038 21.0017V21.41L17 22.6759L12.3963 21.41L12.0674 17.8573H14.2871L14.4515 19.6541L17 20.3483L19.5485 19.6541L19.7952 16.7139H17H11.9852L11.4098 10.6292L11.3275 10.0167H16.9589H22.5903L22.5492 10.6292Z" fill="url(#paint1_linear)"/>
<path d="M34.1408 3.28683V2.18425H35.7439V1H32.9487V4.38941H35.7439V3.28683C35.7028 3.28683 34.1408 3.28683 34.1408 3.28683ZM38.5801 2.18425H39.6899V1H36.8948V2.18425C37.3059 2.59262 37.4703 2.75596 38.0046 3.28683C37.6758 3.28683 36.8948 3.28683 36.8948 3.28683V4.38941H39.6899V3.28683L38.5801 2.18425ZM42.5262 2.18425H43.636V1H40.8409V2.18425C41.2519 2.59262 41.4163 2.75596 41.9507 3.28683C41.6219 3.28683 40.8409 3.28683 40.8409 3.28683V4.38941H43.636V3.28683L42.5262 2.18425Z" fill="url(#paint2_linear)"/>
<path d="M29.29 5.94116L30.9753 24.2766L38.3742 26.2368L45.7731 24.2766L47.4584 5.94116H29.29V5.94116ZM43.9645 9.65726L43.7179 11.8624L38.3331 14.1901H43.5946L42.978 21.0506L38.3331 22.3982L33.7294 21.0506L33.4005 17.5795H35.7024L35.8668 19.3763L38.3331 19.9888L40.8816 19.2946L41.046 16.3544H38.3331H33.2361L33.0717 14.2309L38.3331 12.0258L38.662 11.8624H38.3331H32.8662L32.6195 9.65726H38.3331H43.9645Z" fill="url(#paint3_linear)"/>
<path d="M25.7856 26.5391V27.6417H25.0868V27.2333H24.2236V28.8259H27.0188V25.4365H25.8267V26.5391H25.7856V26.5391ZM29.855 26.6208H30.9648V25.4365H28.1697V26.6208C28.5808 27.0291 28.7452 27.1925 29.2795 27.7234C28.9507 27.7234 28.1697 27.7234 28.1697 27.7234V28.8259H30.9648V27.7234L29.855 26.6208Z" fill="url(#paint4_linear)"/>
<path d="M18.7148 30.2551L20.4001 48.6314L27.7168 50.6733L35.1157 48.6314L36.801 30.2551H18.7148ZM27.0591 46.2629L21.7155 44.8337V42.7102L25.2094 43.6494V34.2571H27.018C27.0591 34.2571 27.0591 46.2629 27.0591 46.2629ZM34.047 36.2989H30.2242V39.4433L33.8003 39.0349L33.3071 44.8745L28.4567 46.1404V44.0169L31.9506 43.0777L32.0328 41.3218L28.5389 41.9343L28.4567 34.1346H34.2936L34.047 36.2989Z" fill="url(#paint5_linear)"/>
</g>
</g>
<defs>
<filter id="filter0_d" width="200%" height="200%" filterUnits="userSpaceOnUse" color-interpolation-filters="sRGB">
<feFlood flood-opacity="0" result="BackgroundImageFix"/>
<feColorMatrix in="SourceAlpha" type="matrix" values="0 0 0 0 0 0 0 0 0 0 0 0 0 0 0 0 0 0 127 0" result="hardAlpha"/>
<feOffset/>
<feGaussianBlur stdDeviation="0.5"/>
<feColorMatrix type="matrix" values="0 0 0 0 0.196078 0 0 0 0 0.207843 0 0 0 0 0.321569 0 0 0 1 0"/>
<feBlend mode="normal" in2="BackgroundImageFix" result="effect1_dropShadow"/>
<feBlend mode="normal" in="SourceGraphic" in2="effect1_dropShadow" result="shape"/>
</filter>
<linearGradient id="paint0_linear" x1="17.0003" y1="1.3186" x2="17.0003" y2="4.70802" gradientUnits="userSpaceOnUse">
<stop stop-color="#245739"/>
<stop offset="1" stop-color="#1B182B" stop-opacity="0.7"/>
</linearGradient>
<linearGradient id="paint1_linear" x1="17.0411" y1="6.25977" x2="17.0411" y2="26.5554" gradientUnits="userSpaceOnUse">
<stop stop-color="#245739"/>
<stop offset="1" stop-color="#1B182B" stop-opacity="0.7"/>
</linearGradient>
<linearGradient id="paint2_linear" x1="38.2924" y1="1" x2="38.2924" y2="4.38941" gradientUnits="userSpaceOnUse">
<stop stop-color="#245739"/>
<stop offset="1" stop-color="#1B182B" stop-opacity="0.7"/>
</linearGradient>
<linearGradient id="paint3_linear" x1="38.3742" y1="5.94116" x2="38.3742" y2="26.2368" gradientUnits="userSpaceOnUse">
<stop stop-color="#245739"/>
<stop offset="1" stop-color="#1B182B" stop-opacity="0.7"/>
</linearGradient>
<linearGradient id="paint4_linear" x1="27.5942" y1="25.4365" x2="27.5942" y2="28.8259" gradientUnits="userSpaceOnUse">
<stop stop-color="#245739"/>
<stop offset="1" stop-color="#1B182B" stop-opacity="0.7"/>
</linearGradient>
<linearGradient id="paint5_linear" x1="27.7579" y1="30.2551" x2="27.7579" y2="50.6733" gradientUnits="userSpaceOnUse">
<stop stop-color="#245739"/>
<stop offset="1" stop-color="#1B182B" stop-opacity="0.7"/>
</linearGradient>
</defs>
</svg>
